<?xml version="1.0" encoding="UTF-8"?>
<svg xmlns="http://www.w3.org/2000/svg" xmlns:xlink="http://www.w3.org/1999/xlink" width="100pt" height="26pt" viewBox="0 0 100 26" version="1.1">
<defs>
<clipPath id="clip1">
  <path d="M 10.289062 9 L 24.757812 9 L 24.757812 24.988281 L 10.289062 24.988281 Z M 10.289062 9 "/>
</clipPath>
<clipPath id="clip2">
  <path d="M 6.671875 0.691406 C 4.019531 0.691406 1.929688 2.875 1.929688 5.550781 L 1.929688 19.882812 C 1.929688 22.558594 4.101562 24.742188 6.753906 24.742188 L 20.898438 24.742188 C 23.554688 24.742188 25.722656 22.558594 25.722656 19.882812 L 25.722656 5.550781 C 25.722656 2.875 23.554688 0.691406 20.898438 0.691406 Z M 6.671875 0.691406 "/>
</clipPath>
<clipPath id="clip3">
  <path d="M 1.445312 3.121094 L 19 3.121094 L 19 24.988281 L 1.445312 24.988281 Z M 1.445312 3.121094 "/>
</clipPath>
<clipPath id="clip4">
  <path d="M 6.671875 0.691406 C 4.019531 0.691406 1.929688 2.875 1.929688 5.550781 L 1.929688 19.882812 C 1.929688 22.558594 4.101562 24.742188 6.753906 24.742188 L 20.898438 24.742188 C 23.554688 24.742188 25.722656 22.558594 25.722656 19.882812 L 25.722656 5.550781 C 25.722656 2.875 23.554688 0.691406 20.898438 0.691406 Z M 6.671875 0.691406 "/>
</clipPath>
</defs>
<g id="surface1">
<path style=" stroke:none;fill-rule:nonzero;fill:rgb(100%,29.019608%,21.568627%);fill-opacity:1;" d="M 44.210938 3.523438 C 44.453125 3.28125 44.453125 2.875 44.210938 2.550781 L 42.523438 1.011719 C 42.28125 0.769531 41.882812 0.769531 41.640625 1.011719 C 41.480469 1.257812 41.558594 1.582031 41.558594 1.742188 C 41.558594 1.824219 41.558594 1.824219 41.640625 1.90625 L 28.777344 1.90625 C 28.457031 1.90625 28.214844 1.984375 28.054688 2.226562 C 27.734375 2.472656 27.652344 2.796875 27.652344 3.039062 C 27.652344 3.363281 27.734375 3.605469 27.972656 3.847656 C 28.214844 4.089844 28.457031 4.171875 28.699219 4.171875 L 34.808594 4.171875 L 34.808594 23.527344 C 34.808594 23.851562 34.886719 24.09375 35.128906 24.339844 C 35.371094 24.582031 35.609375 24.664062 35.933594 24.664062 C 36.253906 24.664062 36.496094 24.582031 36.65625 24.339844 C 36.898438 24.09375 36.976562 23.851562 36.976562 23.527344 L 36.976562 4.171875 L 41.640625 4.171875 C 41.640625 4.253906 41.640625 4.253906 41.558594 4.335938 C 41.480469 4.496094 41.398438 4.902344 41.640625 5.0625 C 41.882812 5.304688 42.28125 5.304688 42.523438 5.0625 Z M 44.210938 3.523438 "/>
<path style=" stroke:none;fill-rule:nonzero;fill:rgb(100%,29.019608%,21.568627%);fill-opacity:1;" d="M 63.585938 18.589844 C 63.261719 19.316406 62.78125 20.046875 62.21875 20.613281 C 61.65625 21.179688 61.011719 21.664062 60.210938 21.988281 C 59.484375 22.3125 58.601562 22.476562 57.796875 22.476562 C 56.992188 22.476562 56.109375 22.3125 55.386719 21.988281 C 54.664062 21.664062 53.9375 21.179688 53.375 20.613281 C 52.8125 20.046875 52.332031 19.398438 52.007812 18.589844 C 51.6875 17.859375 51.527344 17.050781 51.527344 16.160156 C 51.527344 15.269531 51.6875 14.457031 52.007812 13.730469 C 52.332031 12.917969 52.8125 12.269531 53.375 11.703125 C 53.9375 11.136719 54.582031 10.652344 55.386719 10.328125 C 56.109375 10.003906 56.914062 9.839844 57.796875 9.839844 C 58.683594 9.839844 59.484375 10.003906 60.210938 10.328125 C 61.011719 10.652344 61.65625 11.136719 62.21875 11.703125 C 62.78125 12.269531 63.261719 12.917969 63.585938 13.730469 C 63.90625 14.539062 64.066406 15.347656 64.066406 16.160156 C 64.066406 16.96875 63.90625 17.859375 63.585938 18.589844 M 63.746094 10.164062 C 63.023438 9.355469 62.058594 8.789062 61.09375 8.300781 C 60.046875 7.816406 59.003906 7.65625 57.878906 7.65625 C 56.671875 7.734375 55.546875 7.980469 54.5 8.382812 C 53.457031 8.789062 52.574219 9.4375 51.847656 10.246094 C 51.125 10.976562 50.480469 11.867188 50.082031 12.917969 C 49.679688 13.972656 49.4375 15.023438 49.4375 16.238281 C 49.4375 17.453125 49.679688 18.589844 50.082031 19.640625 C 50.480469 20.695312 51.125 21.585938 51.847656 22.3125 C 52.574219 23.042969 53.535156 23.609375 54.5 24.09375 C 55.464844 24.582031 56.589844 24.742188 57.71875 24.742188 C 58.921875 24.742188 59.96875 24.5 61.011719 24.09375 C 62.058594 23.691406 62.941406 23.042969 63.664062 22.234375 C 64.390625 21.421875 65.03125 20.53125 65.433594 19.558594 C 65.835938 18.507812 66.078125 17.453125 66.078125 16.320312 C 66.078125 15.1875 65.835938 14.054688 65.433594 13 C 65.03125 11.945312 64.550781 10.976562 63.746094 10.164062 "/>
<path style=" stroke:none;fill-rule:nonzero;fill:rgb(100%,29.019608%,21.568627%);fill-opacity:1;" d="M 74.757812 22.476562 C 74.035156 22.476562 73.390625 22.3125 72.910156 21.988281 C 72.425781 21.664062 72.105469 21.34375 71.863281 20.9375 C 71.625 20.53125 71.464844 20.128906 71.382812 19.804688 C 71.300781 19.398438 71.222656 19.15625 71.222656 18.992188 L 71.222656 3.039062 C 71.222656 2.714844 71.140625 2.472656 70.898438 2.308594 C 70.660156 2.066406 70.417969 1.984375 70.097656 1.984375 C 69.773438 1.984375 69.535156 2.066406 69.371094 2.308594 C 69.132812 2.550781 69.050781 2.796875 69.050781 3.039062 L 69.050781 18.914062 C 69.050781 19.398438 69.132812 20.046875 69.371094 20.695312 C 69.535156 21.34375 69.855469 21.988281 70.335938 22.558594 C 70.820312 23.125 71.382812 23.609375 72.105469 24.015625 C 72.828125 24.417969 73.714844 24.664062 74.757812 24.664062 C 75.082031 24.664062 75.320312 24.582031 75.480469 24.339844 C 75.722656 24.09375 75.804688 23.851562 75.804688 23.527344 C 75.804688 23.203125 75.722656 22.960938 75.480469 22.800781 C 75.320312 22.558594 75.082031 22.476562 74.757812 22.476562 "/>
<path style=" stroke:none;fill-rule:nonzero;fill:rgb(100%,29.019608%,21.568627%);fill-opacity:1;" d="M 82.234375 22.476562 C 81.429688 22.476562 80.867188 22.3125 80.386719 21.988281 C 79.902344 21.664062 79.582031 21.34375 79.339844 20.9375 C 79.101562 20.53125 78.9375 20.128906 78.859375 19.804688 C 78.777344 19.398438 78.777344 19.15625 78.777344 18.992188 L 78.777344 3.039062 C 78.777344 2.714844 78.699219 2.472656 78.457031 2.308594 C 78.214844 2.066406 77.972656 1.984375 77.734375 1.984375 C 77.492188 1.984375 77.171875 2.066406 77.007812 2.308594 C 76.769531 2.550781 76.6875 2.796875 76.6875 3.039062 L 76.6875 18.914062 C 76.6875 19.398438 76.769531 20.046875 77.007812 20.695312 C 77.25 21.34375 77.492188 21.988281 77.972656 22.558594 C 78.457031 23.125 79.019531 23.609375 79.742188 24.015625 C 80.464844 24.417969 81.351562 24.664062 82.394531 24.664062 C 82.71875 24.664062 82.957031 24.582031 83.117188 24.339844 C 83.359375 24.09375 83.441406 23.851562 83.441406 23.527344 C 83.441406 23.203125 83.359375 22.960938 83.117188 22.800781 C 82.796875 22.558594 82.476562 22.476562 82.234375 22.476562 "/>
<path style=" stroke:none;fill-rule:nonzero;fill:rgb(100%,29.019608%,21.568627%);fill-opacity:1;" d="M 96.785156 18.667969 C 96.464844 19.398438 95.980469 20.128906 95.417969 20.613281 C 94.855469 21.179688 94.210938 21.585938 93.488281 21.910156 C 92.765625 22.234375 91.960938 22.394531 91.15625 22.394531 C 90.273438 22.394531 89.46875 22.234375 88.746094 21.910156 C 88.023438 21.585938 87.300781 21.097656 86.738281 20.53125 C 86.171875 19.964844 85.691406 19.316406 85.371094 18.507812 C 85.046875 17.699219 84.886719 16.96875 84.886719 16.078125 C 84.886719 15.1875 85.046875 14.375 85.371094 13.648438 C 85.691406 12.839844 86.171875 12.191406 86.738281 11.625 C 87.300781 11.054688 87.941406 10.570312 88.746094 10.246094 C 89.46875 9.921875 90.273438 9.761719 91.15625 9.761719 C 92.042969 9.761719 92.84375 9.921875 93.570312 10.246094 C 94.292969 10.570312 95.015625 11.054688 95.578125 11.625 C 96.140625 12.191406 96.625 12.839844 96.945312 13.648438 C 97.265625 14.457031 97.425781 15.269531 97.425781 16.078125 C 97.347656 17.050781 97.1875 17.941406 96.785156 18.667969 M 98.875 12.917969 C 98.390625 11.867188 97.828125 10.976562 97.027344 10.246094 C 96.300781 9.4375 95.335938 8.871094 94.371094 8.382812 C 93.410156 7.898438 92.28125 7.734375 91.15625 7.734375 C 89.953125 7.816406 88.828125 8.058594 87.78125 8.464844 C 86.738281 8.871094 85.851562 9.515625 85.128906 10.328125 C 84.40625 11.054688 83.761719 11.945312 83.359375 13 C 82.957031 14.054688 82.71875 15.105469 82.71875 16.320312 C 82.71875 17.535156 82.957031 18.667969 83.359375 19.722656 C 83.761719 20.773438 84.40625 21.664062 85.128906 22.394531 C 85.851562 23.125 86.816406 23.691406 87.78125 24.175781 C 88.828125 24.582031 89.871094 24.824219 90.996094 24.824219 C 92.28125 24.824219 93.410156 24.5 94.453125 23.933594 C 95.5 23.285156 96.464844 22.558594 97.1875 21.664062 L 97.1875 23.773438 C 97.1875 24.09375 97.265625 24.339844 97.507812 24.582031 C 97.75 24.824219 97.992188 24.90625 98.230469 24.90625 C 98.554688 24.90625 98.792969 24.824219 99.035156 24.582031 C 99.277344 24.339844 99.355469 24.09375 99.355469 23.773438 L 99.355469 16.402344 C 99.519531 15.023438 99.277344 13.890625 98.875 12.917969 "/>
<path style=" stroke:none;fill-rule:nonzero;fill:rgb(100%,29.019608%,21.568627%);fill-opacity:1;" d="M 50.320312 8.222656 L 48.632812 6.683594 C 48.390625 6.441406 47.992188 6.441406 47.75 6.683594 C 47.589844 6.925781 47.667969 7.25 47.667969 7.410156 C 47.75 7.492188 47.75 7.574219 47.75 7.734375 C 47.027344 7.816406 46.382812 8.058594 45.820312 8.300781 C 44.855469 8.707031 43.972656 9.355469 43.167969 10.164062 C 43.085938 10.246094 43.007812 10.328125 42.925781 10.410156 L 42.925781 8.707031 C 42.925781 8.382812 42.84375 8.140625 42.605469 7.898438 C 42.363281 7.65625 42.121094 7.574219 41.882812 7.574219 C 41.558594 7.574219 41.316406 7.65625 41.078125 7.898438 C 40.835938 8.140625 40.753906 8.382812 40.753906 8.707031 L 40.753906 15.511719 C 40.753906 15.671875 40.753906 15.835938 40.753906 15.996094 L 40.753906 23.527344 C 40.753906 23.851562 40.835938 24.09375 41.078125 24.339844 C 41.316406 24.582031 41.558594 24.664062 41.800781 24.664062 C 42.121094 24.664062 42.363281 24.582031 42.523438 24.339844 C 42.765625 24.09375 42.84375 23.851562 42.84375 23.527344 L 42.84375 15.589844 C 42.925781 14.863281 43.007812 14.214844 43.328125 13.648438 C 43.648438 12.917969 44.050781 12.191406 44.613281 11.703125 C 45.175781 11.136719 45.820312 10.730469 46.542969 10.328125 C 46.863281 10.164062 47.265625 10.085938 47.589844 10.003906 C 47.507812 10.164062 47.507812 10.570312 47.667969 10.730469 C 47.910156 10.976562 48.3125 10.976562 48.554688 10.730469 L 50.242188 9.195312 C 50.5625 8.871094 50.5625 8.464844 50.320312 8.222656 "/>
<path style=" stroke:none;fill-rule:nonzero;fill:rgb(100%,29.019608%,21.568627%);fill-opacity:1;" d="M 20.898438 24.664062 L 6.671875 24.664062 C 4.019531 24.664062 1.847656 22.476562 1.847656 19.804688 L 1.847656 5.550781 C 1.847656 2.875 4.019531 0.691406 6.671875 0.691406 L 20.820312 0.691406 C 23.472656 0.691406 25.644531 2.875 25.644531 5.550781 L 25.644531 19.882812 C 25.644531 22.476562 23.472656 24.664062 20.898438 24.664062 "/>
<g clip-path="url(#clip1)" clip-rule="nonzero">
<g clip-path="url(#clip2)" clip-rule="nonzero">
<path style=" stroke:none;fill-rule:nonzero;fill:rgb(100%,100%,100%);fill-opacity:1;" d="M 23.714844 11.542969 L 21.382812 9.355469 C 21.0625 9.03125 20.5 9.03125 20.175781 9.4375 C 19.9375 9.761719 20.015625 10.246094 20.097656 10.488281 C 20.097656 10.570312 20.175781 10.730469 20.175781 10.894531 C 19.210938 11.054688 18.328125 11.300781 17.523438 11.703125 C 16.15625 12.351562 14.953125 13.160156 13.90625 14.214844 C 13.828125 14.296875 13.664062 14.457031 13.585938 14.539062 L 13.585938 12.269531 C 13.585938 11.867188 13.425781 11.542969 13.183594 11.21875 C 12.941406 10.894531 12.539062 10.8125 12.136719 10.8125 C 11.738281 10.8125 11.414062 10.976562 11.09375 11.21875 C 10.773438 11.460938 10.691406 11.867188 10.691406 12.269531 L 10.691406 21.585938 C 10.691406 21.828125 10.691406 22.070312 10.691406 22.234375 L 10.691406 32.519531 C 10.691406 32.921875 10.851562 33.246094 11.09375 33.570312 C 11.414062 33.894531 11.738281 33.976562 12.136719 33.976562 C 12.539062 33.976562 12.863281 33.8125 13.183594 33.570312 C 13.503906 33.328125 13.585938 32.921875 13.585938 32.519531 L 13.585938 21.664062 C 13.664062 20.695312 13.828125 19.804688 14.226562 18.992188 C 14.628906 17.941406 15.273438 17.050781 15.996094 16.320312 C 16.71875 15.589844 17.605469 14.945312 18.648438 14.457031 C 19.132812 14.214844 19.613281 14.054688 20.097656 13.972656 C 20.015625 14.214844 19.9375 14.699219 20.175781 14.945312 C 20.5 15.269531 21.0625 15.347656 21.382812 15.023438 L 23.714844 12.839844 C 24.117188 12.433594 24.117188 11.867188 23.714844 11.542969 "/>
</g>
</g>
<g clip-path="url(#clip3)" clip-rule="nonzero">
<g clip-path="url(#clip4)" clip-rule="nonzero">
<path style=" stroke:none;fill-rule:nonzero;fill:rgb(100%,100%,100%);fill-opacity:1;" d="M 18.410156 7.492188 C 18.808594 7.167969 18.808594 6.601562 18.410156 6.195312 L 16.15625 4.011719 C 15.835938 3.6875 15.273438 3.6875 14.953125 4.089844 C 14.710938 4.414062 14.789062 4.902344 14.871094 5.144531 C 14.871094 5.226562 14.871094 5.304688 14.953125 5.386719 L -2.652344 5.386719 C -3.054688 5.386719 -3.457031 5.550781 -3.699219 5.792969 C -4.019531 6.117188 -4.101562 6.441406 -4.101562 6.84375 C -4.101562 7.25 -4.019531 7.65625 -3.699219 7.898438 C -3.375 8.222656 -3.054688 8.300781 -2.652344 8.300781 L 5.628906 8.300781 L 5.628906 34.785156 C 5.628906 35.191406 5.789062 35.515625 6.027344 35.839844 C 6.351562 36.164062 6.671875 36.324219 7.074219 36.324219 C 7.476562 36.324219 7.796875 36.164062 8.117188 35.917969 C 8.441406 35.597656 8.519531 35.273438 8.519531 34.867188 L 8.519531 8.382812 L 14.871094 8.382812 C 14.871094 8.464844 14.789062 8.546875 14.789062 8.625 C 14.789062 8.789062 14.710938 9.355469 14.953125 9.597656 C 15.273438 9.921875 15.835938 10.003906 16.15625 9.679688 Z M 18.410156 7.492188 "/>
</g>
</g>
</g>
</svg>
