<svg width="1380" height="920" viewBox="0 0 1380 920" fill="none" xmlns="http://www.w3.org/2000/svg">
<path d="M111.353 178.277C112.126 177.804 113.014 177.553 113.92 177.553C114.826 177.553 115.714 177.804 116.487 178.277C116.91 178.535 117.352 178.774 117.793 179.013L119.155 179.713C119.977 180.082 120.68 180.674 121.184 181.422C121.688 182.17 121.973 183.043 122.007 183.945L122.209 190.256L142.744 189.612L142.56 183.301C142.541 182.396 142.772 181.504 143.226 180.722C143.68 179.94 144.341 179.298 145.136 178.866C146.038 178.385 146.911 177.851 147.749 177.265C148.485 176.746 149.351 176.441 150.25 176.382C151.15 176.324 152.048 176.515 152.845 176.934L158.365 179.915L168.099 161.92L162.579 158.957C161.781 158.512 161.123 157.852 160.681 157.052C160.239 156.252 160.029 155.344 160.077 154.431C160.077 153.401 160.077 152.389 160.077 151.377C159.987 150.475 160.152 149.567 160.552 148.754C160.952 147.941 161.571 147.256 162.34 146.777L167.529 143.52L156.691 126.058L151.3 129.389C150.534 129.863 149.652 130.114 148.751 130.114C147.851 130.114 146.968 129.863 146.203 129.389C145.78 129.131 145.338 128.892 144.897 128.653C144.455 128.413 143.995 128.174 143.535 127.972C142.714 127.596 142.012 126.999 141.509 126.249C141.006 125.499 140.72 124.624 140.683 123.721L140.481 117.41L119.946 118.036L120.149 124.329C120.169 125.233 119.94 126.126 119.485 126.909C119.031 127.691 118.369 128.333 117.573 128.763C116.674 129.257 115.802 129.797 114.96 130.382C114.213 130.889 113.34 131.182 112.438 131.227C111.536 131.273 110.639 131.069 109.845 130.64L104.325 127.659L94.6094 145.783L100.129 148.745C100.923 149.176 101.583 149.819 102.034 150.602C102.486 151.384 102.712 152.277 102.687 153.18C102.687 154.21 102.687 155.241 102.687 156.253C102.776 157.154 102.612 158.063 102.212 158.875C101.812 159.688 101.192 160.373 100.424 160.853L95.0694 164.165L105.907 181.626L111.353 178.277ZM116.505 145.838C118.077 142.902 120.485 140.497 123.423 138.929C126.362 137.361 129.699 136.7 133.013 137.029C136.328 137.359 139.47 138.664 142.043 140.779C144.615 142.895 146.502 145.726 147.466 148.914C148.429 152.103 148.425 155.505 147.454 158.691C146.483 161.877 144.589 164.703 142.011 166.813C139.433 168.922 136.288 170.219 132.973 170.54C129.658 170.862 126.322 170.192 123.387 168.617C119.459 166.504 116.529 162.919 115.24 158.65C113.95 154.38 114.405 149.773 116.505 145.838V145.838Z" fill="#EBEBEB"/>
<path d="M691.528 298.907L691.307 291.676C691.274 290.947 691.039 290.242 690.63 289.638C690.221 289.034 689.653 288.555 688.989 288.253C688.51 288.033 688.05 287.793 687.572 287.536C687.093 287.278 686.67 287.039 686.229 286.763C685.599 286.379 684.877 286.176 684.14 286.176C683.403 286.176 682.681 286.379 682.052 286.763L681.573 285.99L682.052 286.763L675.925 290.572L664.112 271.546L670.257 267.756C670.869 267.367 671.364 266.819 671.688 266.171C672.012 265.523 672.153 264.798 672.097 264.076C672.011 263.017 671.981 261.954 672.005 260.893C672.042 260.148 671.868 259.407 671.503 258.757C671.139 258.106 670.599 257.571 669.945 257.213L663.578 253.809L674.176 234.084L680.525 237.488C681.172 237.83 681.903 237.985 682.634 237.936C683.365 237.887 684.068 237.637 684.665 237.212C685.535 236.604 686.438 236.045 687.369 235.537C688.03 235.184 688.578 234.651 688.949 234C689.32 233.349 689.5 232.606 689.467 231.857L689.228 224.645L711.621 223.945L711.823 231.177C711.859 231.912 712.097 232.622 712.508 233.232C712.92 233.842 713.491 234.327 714.16 234.636C714.638 234.843 715.105 235.076 715.558 235.335C716.018 235.574 716.478 235.832 716.92 236.108C717.542 236.49 718.259 236.692 718.99 236.692C719.721 236.692 720.437 236.49 721.06 236.108L727.224 232.281L739.037 251.306L732.891 255.115C732.279 255.504 731.785 256.051 731.46 256.7C731.136 257.348 730.995 258.072 731.051 258.795C731.143 259.841 731.18 260.891 731.161 261.941C731.12 262.687 731.293 263.429 731.657 264.08C732.022 264.732 732.565 265.266 733.222 265.621L739.589 269.025L728.972 288.879L722.624 285.475C721.979 285.126 721.249 284.966 720.517 285.011C719.785 285.057 719.081 285.307 718.484 285.732C717.619 286.34 716.644 286.892 715.797 287.407C715.13 287.753 714.578 288.285 714.205 288.937C713.833 289.59 713.658 290.337 713.7 291.087L713.921 298.3L691.528 298.907ZM684.076 284.316C685.168 284.321 686.237 284.626 687.167 285.199C687.59 285.457 688.013 285.696 688.455 285.917C688.897 286.137 689.32 286.377 689.761 286.579C690.738 287.022 691.572 287.729 692.17 288.619C692.768 289.509 693.106 290.549 693.147 291.621L693.312 297.012L712.025 296.441L711.86 291.05C711.827 289.975 712.095 288.913 712.635 287.983C713.175 287.053 713.964 286.292 714.914 285.788C715.761 285.309 716.607 284.794 717.435 284.224C718.31 283.606 719.339 283.244 720.407 283.175C721.476 283.107 722.542 283.336 723.489 283.837L728.236 286.377L737.068 269.817L732.321 267.351C731.376 266.842 730.591 266.08 730.055 265.151C729.519 264.222 729.252 263.161 729.285 262.089C729.285 261.113 729.285 260.12 729.193 259.126C729.076 258.047 729.267 256.956 729.742 255.98C730.217 255.003 730.958 254.181 731.879 253.606L736.461 250.773L726.598 234.875L721.998 237.727C721.086 238.29 720.034 238.589 718.962 238.589C717.89 238.589 716.839 238.29 715.926 237.727L714.657 237.009C714.215 236.77 713.792 236.549 713.35 236.347C712.371 235.9 711.535 235.19 710.934 234.297C710.333 233.404 709.991 232.362 709.946 231.287L709.799 225.896L691.086 226.485L691.27 231.857C691.297 232.931 691.025 233.991 690.486 234.92C689.947 235.849 689.161 236.61 688.216 237.12C687.342 237.595 686.494 238.117 685.676 238.684C684.803 239.305 683.774 239.67 682.705 239.738C681.635 239.807 680.568 239.575 679.623 239.07L674.876 236.531L666.044 253.091L670.772 255.63C671.713 256.144 672.494 256.907 673.03 257.835C673.565 258.763 673.835 259.821 673.809 260.893C673.784 261.887 673.814 262.882 673.901 263.873C674.01 264.954 673.815 266.044 673.337 267.02C672.859 267.996 672.117 268.818 671.196 269.393L666.632 272.209L676.495 288.106L681.058 285.272C681.956 284.681 683.001 284.349 684.076 284.316V284.316ZM701.537 279.219C697.648 279.219 693.866 277.944 690.771 275.588C687.676 273.232 685.439 269.927 684.404 266.178C683.368 262.429 683.59 258.444 685.037 254.833C686.484 251.223 689.075 248.187 692.412 246.19C695.75 244.194 699.651 243.347 703.516 243.781C707.381 244.214 710.998 245.903 713.811 248.589C716.624 251.275 718.478 254.809 719.09 258.65C719.701 262.491 719.036 266.427 717.196 269.853C715.688 272.694 713.433 275.069 710.673 276.72C707.912 278.371 704.753 279.235 701.537 279.219V279.219ZM701.537 245.547C699.967 245.546 698.405 245.776 696.901 246.228C693.064 247.389 689.809 249.958 687.788 253.419C685.767 256.88 685.129 260.977 686.003 264.889C686.877 268.8 689.198 272.237 692.5 274.508C695.803 276.78 699.842 277.719 703.807 277.137C707.773 276.555 711.371 274.494 713.881 271.369C716.391 268.244 717.626 264.286 717.339 260.288C717.052 256.29 715.263 252.549 712.332 249.815C709.402 247.081 705.545 245.556 701.537 245.547V245.547Z" fill="#EBEBEB"/>
<path d="M972.491 478.491C973.037 478.816 973.482 479.285 973.778 479.847C974.073 480.409 974.207 481.041 974.166 481.675C974.166 482.024 974.166 482.374 974.166 482.742C974.166 483.11 974.166 483.46 974.166 483.809C974.208 484.44 974.074 485.07 973.778 485.629C973.482 486.188 973.037 486.654 972.491 486.974L968.664 489.182L975.858 501.657L979.686 499.449C980.235 499.131 980.861 498.973 981.495 498.993C982.129 499.012 982.745 499.209 983.274 499.56C983.868 499.952 984.482 500.314 985.114 500.645C985.67 500.933 986.136 501.369 986.461 501.904C986.785 502.44 986.956 503.055 986.954 503.681V508.097H1001.36V503.681C1001.36 503.055 1001.53 502.441 1001.86 501.906C1002.18 501.371 1002.65 500.935 1003.2 500.645C1003.84 500.322 1004.45 499.96 1005.04 499.56C1005.58 499.19 1006.21 498.983 1006.86 498.964C1007.52 498.944 1008.16 499.113 1008.72 499.449L1012.55 501.657L1019.74 489.182L1015.9 486.956C1015.36 486.632 1014.92 486.165 1014.62 485.606C1014.33 485.048 1014.2 484.42 1014.24 483.791C1014.24 483.441 1014.24 483.091 1014.24 482.742C1014.24 482.392 1014.24 482.024 1014.24 481.675C1014.2 481.044 1014.33 480.413 1014.63 479.854C1014.92 479.295 1015.37 478.83 1015.92 478.51L1019.74 476.302L1012.55 463.827L1008.74 466.035C1008.18 466.368 1007.53 466.534 1006.88 466.511C1006.23 466.488 1005.6 466.278 1005.06 465.906C1004.46 465.519 1003.85 465.163 1003.22 464.839C1002.66 464.546 1002.2 464.107 1001.87 463.568C1001.55 463.03 1001.38 462.413 1001.38 461.784V457.387H986.972V461.84C986.974 462.468 986.803 463.085 986.479 463.624C986.154 464.162 985.689 464.601 985.132 464.894C984.497 465.21 983.882 465.567 983.292 465.961C982.765 466.315 982.15 466.514 981.516 466.537C980.882 466.56 980.255 466.405 979.704 466.09L975.877 463.882L968.682 476.357L972.491 478.491ZM994.222 470.929C996.554 470.929 998.833 471.62 1000.77 472.916C1002.71 474.211 1004.22 476.052 1005.12 478.206C1006.01 480.36 1006.24 482.73 1005.79 485.018C1005.34 487.305 1004.22 489.407 1002.57 491.057C1000.92 492.707 998.821 493.832 996.534 494.289C994.247 494.746 991.876 494.515 989.721 493.625C987.565 492.736 985.722 491.227 984.424 489.29C983.126 487.352 982.431 485.074 982.427 482.742C982.427 479.612 983.669 476.61 985.881 474.396C988.092 472.181 991.092 470.934 994.222 470.929V470.929Z" fill="#EBEBEB"/>
<path d="M1190.59 223.137C1190.59 234.226 1193.87 245.065 1200.03 254.285C1206.2 263.505 1214.95 270.691 1225.2 274.934C1235.44 279.178 1246.71 280.288 1257.59 278.125C1268.46 275.961 1278.45 270.622 1286.29 262.781C1294.14 254.94 1299.48 244.95 1301.64 234.075C1303.8 223.199 1302.69 211.926 1298.45 201.682C1294.2 191.437 1287.02 182.681 1277.8 176.521C1268.58 170.36 1257.74 167.072 1246.65 167.072C1231.78 167.072 1217.52 172.979 1207.01 183.493C1196.49 194.007 1190.59 208.268 1190.59 223.137V223.137ZM1220.47 223.137C1220.46 217.953 1222 212.885 1224.88 208.573C1227.75 204.262 1231.85 200.9 1236.63 198.915C1241.42 196.93 1246.69 196.409 1251.78 197.42C1256.86 198.43 1261.53 200.926 1265.2 204.591C1268.86 208.257 1271.36 212.927 1272.37 218.011C1273.38 223.096 1272.86 228.366 1270.87 233.154C1268.89 237.943 1265.53 242.034 1261.21 244.912C1256.9 247.79 1251.83 249.324 1246.65 249.32C1239.71 249.32 1233.05 246.562 1228.14 241.651C1223.23 236.741 1220.47 230.081 1220.47 223.137V223.137Z" fill="#EBEBEB"/>
<path d="M1235.87 169.39H1257.43L1256.24 154.137H1237.06L1235.87 169.39Z" fill="#EBEBEB"/>
<path d="M1276.92 176.658L1292.16 191.911L1302.11 180.264L1288.55 166.703L1276.92 176.658Z" fill="#EBEBEB"/>
<path d="M1300.8 210.809V232.373L1316.06 231.177V212.005L1300.8 210.809Z" fill="#EBEBEB"/>
<path d="M1293.53 251.859L1278.28 267.095L1289.91 277.049L1303.47 263.488L1293.53 251.859Z" fill="#EBEBEB"/>
<path d="M1259.39 275.742H1237.82L1239.02 290.996H1258.19L1259.39 275.742Z" fill="#EBEBEB"/>
<path d="M1218.33 268.474L1203.1 253.221L1193.14 264.868L1206.7 278.429L1218.33 268.474Z" fill="#EBEBEB"/>
<path d="M1194.45 234.323V212.758L1179.2 213.954V233.127L1194.45 234.323Z" fill="#EBEBEB"/>
<path d="M1201.72 193.274L1216.97 178.038L1205.33 168.084L1191.77 181.645L1201.72 193.274Z" fill="#EBEBEB"/>
<path d="M374.311 625.25H353.427L352.452 612.664C345.045 611.445 337.96 608.741 331.623 604.715L322 613.014L307.28 598.294L315.229 588.983C310.877 582.781 307.834 575.756 306.286 568.339L293.664 567.363V546.479L306.139 545.486C307.546 538.186 310.399 531.242 314.53 525.062L305.9 514.979L320.62 500.259L330.74 508.925C336.734 504.973 343.43 502.206 350.465 500.774L351.55 486.643H372.434L373.538 500.774C380.347 502.143 386.837 504.777 392.674 508.539L403.935 498.897L418.655 513.617L409.198 524.657C413.057 530.337 415.833 536.681 417.386 543.37L432.271 544.529V565.431L418.048 566.517C416.842 573.423 414.345 580.04 410.688 586.021L420.035 596.914L405.315 611.634L395.066 602.894C389.143 607.134 382.449 610.178 375.36 611.855L374.311 625.25ZM355.138 623.41H372.6L373.63 610.364L374.293 610.217C381.601 608.576 388.491 605.444 394.533 601.017L395.122 600.594L405.186 609.168L417.551 596.822L408.48 586.15L408.83 585.579C412.671 579.449 415.242 572.61 416.392 565.468L416.521 564.751L430.486 563.683V546.203L415.95 545.063L415.803 544.4C414.271 537.469 411.396 530.905 407.339 525.08L406.934 524.491L416.134 513.672L403.77 501.307L392.73 510.747L392.141 510.36C386.164 506.398 379.459 503.664 372.416 502.319L371.735 502.191L370.65 488.372H353.28L352.213 502.191L351.44 502.319C344.19 503.711 337.302 506.573 331.2 510.728L330.961 510.875H330.335L330.059 510.655L320.712 502.651L308.366 515.015L316.811 524.878L316.406 525.467C312.047 531.774 309.08 538.937 307.703 546.479L307.574 547.179L295.394 548.154V565.615L307.703 566.572L307.85 567.271C309.345 574.92 312.484 582.153 317.05 588.468L317.474 589.057L309.69 598.165L322 610.511L331.458 602.434L332.028 602.802C338.494 607.025 345.792 609.811 353.427 610.971L354.145 611.082L355.138 623.41ZM361.928 583.574C356.568 583.57 351.33 581.977 346.875 578.997C342.421 576.017 338.95 571.782 336.901 566.83C334.853 561.877 334.318 556.428 335.366 551.172C336.414 545.915 338.997 541.088 342.788 537.299C346.579 533.511 351.409 530.931 356.666 529.887C361.923 528.842 367.371 529.38 372.323 531.432C377.274 533.484 381.506 536.958 384.483 541.415C387.461 545.871 389.05 551.111 389.05 556.471C389.045 563.66 386.185 570.554 381.099 575.636C376.014 580.719 369.118 583.574 361.928 583.574V583.574ZM361.928 531.207C356.932 531.211 352.05 532.696 347.898 535.474C343.746 538.252 340.51 542.199 338.601 546.815C336.692 551.432 336.194 556.511 337.171 561.41C338.148 566.31 340.555 570.81 344.089 574.341C347.623 577.872 352.125 580.276 357.025 581.25C361.925 582.223 367.003 581.722 371.619 579.809C376.234 577.896 380.178 574.658 382.953 570.504C385.728 566.35 387.21 561.466 387.21 556.471C387.2 549.77 384.533 543.347 379.793 538.611C375.053 533.875 368.628 531.212 361.928 531.207V531.207Z" fill="#EBEBEB"/>
<path d="M208.414 658.334C197.852 658.518 171.209 658.978 160.997 659.088L145.008 659.18H144.18V658.334V637.744V636.824H145.1L176.803 636.953C184.696 636.953 200.612 637.192 208.506 637.303H208.966V637.744L208.524 658.334H208.414ZM208.414 658.334L207.917 637.744L208.359 638.186C200.447 638.296 184.568 638.48 176.656 638.535L144.952 638.664L145.872 637.744V658.334L145.044 657.506H160.758C170.804 657.616 198.055 658.076 208.451 658.26L208.414 658.334Z" fill="#EBEBEB"/>
<path d="M173.05 684.295C162.488 684.479 135.845 684.939 125.633 685.049L109.643 685.141H108.797V684.295V663.705V662.785H109.735L141.438 662.914C149.332 662.914 165.248 663.153 173.142 663.264H173.583V663.705L173.142 684.295H173.05ZM173.05 684.295L172.608 663.705L173.05 664.147C165.138 664.257 149.24 664.441 141.346 664.496L109.643 664.625L110.563 663.705L110.398 684.295L109.57 683.467H125.265C135.311 683.577 162.58 684.037 172.976 684.221L173.05 684.295Z" fill="#EBEBEB"/>
<path d="M538.233 218.959C527.671 219.143 501.046 219.603 490.834 219.713L474.826 219.805H473.998V218.959L473.906 198.369V197.449H474.826L506.529 197.578C514.423 197.578 530.339 197.817 538.233 197.928H538.693V198.351L538.233 218.959ZM538.233 218.959L537.791 198.369L538.233 198.811C530.321 198.94 514.441 199.105 506.529 199.179L474.826 199.289L475.746 198.369V218.959L474.9 218.131H490.613C500.66 218.26 527.91 218.72 538.306 218.885L538.233 218.959Z" fill="#EBEBEB"/>
<path d="M502.867 244.867C492.306 245.051 465.662 245.511 455.45 245.622H439.461H438.633V244.775V224.186V223.266H439.553L471.256 223.394C479.15 223.394 495.066 223.634 502.959 223.744H503.419V224.167L502.978 244.757L502.867 244.867ZM502.867 244.867L502.426 224.278L502.867 224.719C494.955 224.83 479.076 225.014 471.164 225.087L439.461 225.198L440.381 224.278L440.289 244.867L439.461 244.039H455.174C465.221 244.168 492.471 244.628 502.867 244.794V244.867Z" fill="#EBEBEB"/>
<path d="M573.617 224.277H510.211V244.867H573.617V224.277Z" fill="#EBEBEB"/>
<path d="M1241.13 663.705H1177.73V684.295H1241.13V663.705Z" fill="#EBEBEB"/>
<path d="M1241.13 79.5605H1177.73V100.15H1241.13V79.5605Z" fill="#EBEBEB"/>
<path d="M1276.5 126.113C1265.94 126.297 1239.29 126.757 1229.1 126.868H1213.09H1212.26V126.021L1212.17 105.432V104.512H1213.09L1244.8 104.641C1252.69 104.641 1268.6 104.88 1276.5 104.99H1276.96V105.413L1276.52 126.003L1276.5 126.113ZM1276.5 126.113L1276.06 105.524L1276.5 105.965C1268.59 106.094 1252.71 106.26 1244.8 106.333L1213.09 106.444L1214.01 105.524V126.113L1213.17 125.285H1228.88C1238.93 125.414 1266.18 125.874 1276.57 126.04L1276.5 126.113Z" fill="#EBEBEB"/>
<path d="M166.901 100.188C156.34 100.372 129.696 100.813 119.484 100.942H103.495H102.648V100.114V79.5243V78.5859H103.568L135.272 78.6963C143.165 78.6963 159.081 78.9355 166.975 79.0459H167.435V79.4875L166.993 100.077L166.901 100.188ZM166.901 100.188L166.46 79.5979L166.901 80.0395C158.989 80.1499 143.11 80.3155 135.198 80.3891L103.495 80.4995L104.415 79.5979V100.188L103.495 99.3595H119.19C129.255 99.4883 156.505 99.9483 166.901 100.132V100.188Z" fill="#EBEBEB"/>
<path d="M706.867 591.781H770.273V571.192H706.867V591.781Z" fill="#EBEBEB"/>
<path d="M742.237 545.229C752.817 545.045 779.442 544.585 789.654 544.475H805.643H806.49V545.321V565.911V566.831H805.551L773.848 566.702C765.954 566.702 750.038 566.463 742.145 566.352H741.703V565.911L742.145 545.321L742.237 545.229ZM742.237 545.229L742.697 565.819L742.237 565.377C750.149 565.267 766.046 565.101 773.94 565.027L805.643 564.899L804.742 565.819V545.229L805.57 546.075H789.874C779.828 545.965 752.559 545.505 742.163 545.321L742.237 545.229Z" fill="#EBEBEB"/>
<path d="M80.2422 796.831C470.893 795.709 909.107 795.69 1299.76 796.831C909.107 797.972 470.893 797.953 80.2422 796.831V796.831Z" fill="#263238"/>
<path d="M784.574 209.448C779.935 205.971 774.58 203.57 768.898 202.419C765.96 201.651 762.937 201.255 759.9 201.242C746.026 201.094 729.982 208.252 713.33 223.322C693.329 242.476 674.782 273.002 665.25 310.409C655.848 347.374 657.596 383.034 666.318 408.131C672.426 425.354 680.835 437.203 690.477 444.232L672.242 430.929C662.601 423.9 654.155 412.069 648.083 394.828C639.343 369.73 637.614 334.108 646.998 297.124C656.529 259.643 675.094 229.173 695.095 210.018C711.655 194.93 727.774 187.773 741.647 187.938C744.684 187.951 747.707 188.347 750.645 189.116C756.332 190.27 761.692 192.67 766.34 196.145L784.574 209.448Z" fill="#FF4A37"/>
<g opacity="0.1">
<path opacity="0.1" d="M784.574 209.448C779.935 205.971 774.58 203.57 768.898 202.419C765.96 201.651 762.937 201.255 759.9 201.242C746.026 201.094 729.982 208.252 713.33 223.322C693.329 242.476 674.782 273.002 665.25 310.409C655.848 347.374 657.596 383.034 666.318 408.131C672.426 425.354 680.835 437.203 690.477 444.232L672.242 430.929C662.601 423.9 654.155 412.069 648.083 394.828C639.343 369.73 637.614 334.108 646.998 297.124C656.529 259.643 675.094 229.173 695.095 210.018C711.655 194.93 727.774 187.773 741.647 187.938C744.684 187.951 747.707 188.347 750.645 189.116C756.332 190.27 761.692 192.67 766.34 196.145L784.574 209.448Z" fill="black"/>
</g>
<path d="M866.951 356.336C854.384 403.605 831.513 444.656 800.564 472.863C775.982 495.9 744.738 511.797 711.894 511.503C704.829 511.43 697.791 510.603 690.9 509.037C678.179 506.112 666.189 500.621 655.664 492.9L637.43 479.597C647.951 487.323 659.943 492.815 672.666 495.734C679.562 497.304 686.606 498.13 693.679 498.2C726.523 498.512 757.766 482.596 782.348 459.56C813.279 431.352 836.15 390.302 848.735 343.032C860.401 295.045 859.647 249.192 845.663 210.736C837.07 185.473 822.387 162.896 801.742 147.9L819.994 161.185C840.621 176.218 855.304 198.758 863.897 224.04C877.863 262.459 878.617 308.33 866.951 356.336Z" fill="#FF4A37"/>
<g opacity="0.1">
<path opacity="0.1" d="M866.951 356.336C854.384 403.605 831.513 444.656 800.564 472.863C775.982 495.9 744.738 511.797 711.894 511.503C704.829 511.43 697.791 510.603 690.9 509.037C678.179 506.112 666.189 500.621 655.664 492.9L637.43 479.597C647.951 487.323 659.943 492.815 672.666 495.734C679.562 497.304 686.606 498.13 693.679 498.2C726.523 498.512 757.766 482.596 782.348 459.56C813.279 431.352 836.15 390.302 848.735 343.032C860.401 295.045 859.647 249.192 845.663 210.736C837.07 185.473 822.387 162.896 801.742 147.9L819.994 161.185C840.621 176.218 855.304 198.758 863.897 224.04C877.863 262.459 878.617 308.33 866.951 356.336Z" fill="black"/>
</g>
<path d="M845.625 210.718C859.627 249.155 860.345 295.045 848.716 343.032C836.13 390.302 813.259 431.352 782.329 459.559C757.746 482.596 726.503 498.512 693.659 498.199C686.587 498.128 679.543 497.301 672.646 495.734C633.326 486.791 605.983 454.15 592.882 416.466C579.395 378.158 578.162 331.643 590.306 284.263C602.506 236.423 625.745 195.943 656.197 167.625C680.871 144.165 712.39 128.617 744.756 128.985C751.714 129.027 758.648 129.817 765.438 131.34C805.697 140.522 832.653 172.538 845.625 210.718ZM792.026 330.152C801.557 292.671 799.68 257.546 791.087 231.915C781.317 206.559 766.597 192.207 750.607 189.116C747.668 188.356 744.646 187.96 741.61 187.939C727.736 187.81 711.691 194.967 695.058 210.019C675.038 229.155 656.418 259.699 646.96 297.106C637.558 334.053 639.306 369.712 648.046 394.828C657.135 420.588 671.469 434.296 687.311 437.903C690.151 438.537 693.05 438.87 695.959 438.896C710.127 439.025 726.687 432.272 744.038 416.669C763.892 398.048 782.586 366.989 791.989 330.189" fill="#FF4A37"/>
<path d="M893.283 518.311C893.283 518.311 880.238 520.151 875.362 529.995C870.486 539.839 847.89 591.69 843.364 601.755C838.838 611.819 800.234 658.206 800.234 658.206C800.234 658.206 812.93 675.336 816.794 678.998C822.149 684.076 842.554 693.515 842.554 693.515C842.554 693.515 868.958 620.615 871.498 613.034C874.037 605.453 893.283 518.311 893.283 518.311Z" fill="#FF4A37"/>
<path d="M842.586 637.323C841.606 637.165 840.601 637.25 839.661 637.571C838.722 637.892 837.875 638.438 837.195 639.163C834.831 640.806 832.864 642.956 831.436 645.455C830.681 646.835 829.853 649.135 831.693 649.982C833.533 650.828 836.496 648.786 837.968 647.719C839.44 646.651 847.499 638.574 842.586 637.323ZM821.978 638.261C819.145 638.39 817.084 641.518 815.961 643.781C815.012 645.609 814.389 647.589 814.121 649.632C813.875 650.721 813.998 651.86 814.471 652.871C815.961 655.41 818.298 652.668 819.531 651.343C821.974 648.992 823.709 646.002 824.536 642.714C824.849 640.671 824.628 638.132 821.978 638.261ZM844.058 622.787C842.862 621.627 841.335 622.087 839.918 623.136C838.24 624.342 836.809 625.86 835.705 627.607C835.079 628.693 833.993 630.57 834.785 631.839C835.576 633.109 837.324 632.631 838.465 632.023C840.323 630.938 846.726 625.399 844.04 622.787H844.058ZM819.439 681.115C818.516 680.489 817.637 679.8 816.808 679.054C816.421 678.704 815.98 678.226 815.465 677.655H815.925C817.673 677.398 819.218 677.747 819.715 679.367C819.807 679.661 819.829 679.972 819.778 680.276C819.727 680.58 819.604 680.867 819.421 681.115H819.439ZM808.841 669.541C805.989 665.861 803.192 662.181 801.609 660.083C801.703 659.277 801.851 658.478 802.051 657.691C802.3 656.669 802.67 655.681 803.155 654.747V654.747C803.463 654.19 803.875 653.696 804.369 653.294C804.936 652.85 805.636 652.61 806.357 652.613C809.834 652.613 810.037 657.323 810.165 659.752C810.641 663.077 810.175 666.468 808.822 669.541H808.841ZM816.918 661.151C815.189 665.861 816.09 669.081 817.415 669.394C820.065 670.001 822.254 666.358 823.377 663.322C824.26 660.948 824.738 656.256 823.027 655.428C821.592 654.747 818.519 656.882 816.955 661.151H816.918ZM882.054 568.562C881.833 569.5 881.631 570.402 881.41 571.377C881.264 570.391 881.494 569.386 882.054 568.562V568.562ZM873.406 560.171C870.573 560.171 868.309 563.097 867.04 565.287C865.973 567.033 865.214 568.95 864.795 570.954C864.469 572.023 864.514 573.171 864.924 574.211C866.249 576.842 868.751 574.211 870.076 573.015C872.652 570.816 874.564 567.942 875.596 564.716C876.129 562.711 876.056 560.171 873.406 560.116V560.171ZM887.537 544.145C886.985 546.666 886.378 549.297 885.789 552.002C885.401 552.099 884.992 552.068 884.623 551.912C884.255 551.756 883.947 551.484 883.747 551.137C883.029 549.794 884.244 548.009 884.943 546.96C885.695 545.907 886.565 544.944 887.537 544.09V544.145ZM866.856 582.693C864.813 587.275 865.513 590.55 866.856 590.936C869.45 591.709 871.879 588.231 873.185 585.269C874.216 582.969 875.025 578.314 873.351 577.375C871.953 576.547 868.751 578.406 866.856 582.638V582.693ZM850.204 600.136C848.493 600.026 847.241 601.443 846.524 603.172C845.892 604.428 845.464 605.775 845.254 607.165C845.144 608.048 845.254 609.299 846.413 609.391C847.573 609.483 848.861 607.956 849.431 607.073C850.001 606.19 853.626 600.302 850.204 600.081V600.136Z" fill="#263238"/>
<path d="M706.72 797.567C703.132 796.371 706.334 785.975 710.4 782.847C714.234 780.499 718.217 778.404 722.324 776.573C735.369 770.299 754.1 761.853 754.1 761.853L738.129 694.178L803.21 694.546C803.21 694.546 820.984 758.081 820.874 762.037C820.874 762.276 820.874 762.515 820.874 762.773C820.322 780.695 819.439 795.378 817.967 796.298C813.919 798.8 710.345 798.782 706.72 797.567Z" fill="#D3766A"/>
<path d="M706.726 797.567C710.406 798.781 813.943 798.8 817.88 796.297C819.352 795.377 820.236 780.713 820.806 762.773V762.037C820.334 758.839 819.664 755.675 818.8 752.561H751.843L754.032 761.889C754.032 761.889 735.283 770.261 722.256 776.517C718.148 778.351 714.165 780.454 710.332 782.81C706.321 785.975 703.138 796.371 706.726 797.567Z" fill="#EBEBEB"/>
<path d="M705.563 798.156C709.243 799.389 814.711 799.26 818.723 796.702C820.268 795.764 821.133 780.4 821.667 761.742C821.667 761.54 821.667 761.356 821.667 761.154L753.587 760.473V761.761C753.587 761.761 713.254 779.866 709.132 783.141C705.011 786.417 701.883 796.923 705.563 798.156Z" fill="#FF4A37"/>
<path d="M706.759 794.053C724.533 793.593 796.275 793.428 813.883 794.329C814.031 794.329 814.031 794.44 813.883 794.44C796.275 795.286 724.533 794.863 706.759 794.348C706.372 794.348 706.372 794.072 706.759 794.053Z" fill="#263238"/>
<path d="M746.064 760.73C753.056 759.423 761.612 760.491 766.967 765.459C767.187 765.661 766.967 765.937 766.672 765.882C759.988 763.724 753.091 762.293 746.101 761.613C746.043 761.615 745.985 761.606 745.931 761.586C745.876 761.566 745.826 761.536 745.783 761.497C745.741 761.457 745.706 761.41 745.682 761.357C745.657 761.305 745.643 761.248 745.641 761.19C745.639 761.132 745.648 761.074 745.668 761.019C745.688 760.965 745.718 760.915 745.757 760.872C745.797 760.829 745.844 760.795 745.897 760.77C745.949 760.746 746.006 760.732 746.064 760.73V760.73Z" fill="#263238"/>
<path d="M741.017 763.785C748.009 762.46 756.565 763.528 761.92 768.514C762.122 768.698 761.92 768.992 761.625 768.919C754.938 766.778 748.042 765.353 741.054 764.668C740.937 764.673 740.823 764.631 740.736 764.552C740.65 764.473 740.599 764.362 740.594 764.245C740.589 764.128 740.631 764.014 740.71 763.928C740.79 763.841 740.9 763.79 741.017 763.785Z" fill="#263238"/>
<path d="M735.996 766.84C742.988 765.515 751.544 766.582 756.899 771.569C757.101 771.753 756.899 772.047 756.604 771.973C749.907 769.823 742.998 768.398 735.996 767.723C735.879 767.723 735.767 767.677 735.684 767.594C735.601 767.511 735.555 767.399 735.555 767.281C735.555 767.164 735.601 767.052 735.684 766.969C735.767 766.886 735.879 766.84 735.996 766.84V766.84Z" fill="#263238"/>
<path d="M740.103 755.45C745.052 759.296 751.492 760.86 757.27 762.976C757.401 763.014 757.54 763.02 757.674 762.994C757.809 762.968 757.935 762.91 758.043 762.826C758.151 762.741 758.237 762.632 758.295 762.508C758.352 762.384 758.379 762.248 758.374 762.111C758.403 762.107 758.43 762.097 758.455 762.081C758.479 762.065 758.5 762.044 758.516 762.02C758.531 761.996 758.542 761.968 758.546 761.939C758.55 761.91 758.548 761.881 758.539 761.853C756.399 755.665 752.675 750.146 747.739 745.845C744.813 743.398 739.698 741.687 736.956 745.477C734.215 749.268 737.214 753.205 740.103 755.45ZM738.263 749.82C737.011 742.147 745.255 746.14 747.352 747.98C748.668 749.232 749.897 750.572 751.032 751.991C753.358 754.945 755.532 758.016 757.546 761.191C754.767 759.977 751.915 759.001 749.1 757.879C745.825 756.628 738.999 754.052 738.318 749.82H738.263Z" fill="#263238"/>
<path d="M781.868 751.163C780.175 746.802 774.802 747.151 771.343 748.789C765.48 751.694 760.486 756.092 756.863 761.54C756.843 761.564 756.83 761.592 756.824 761.622C756.818 761.652 756.82 761.683 756.829 761.712C756.838 761.742 756.854 761.768 756.876 761.789C756.898 761.811 756.925 761.826 756.955 761.835C756.914 761.964 756.905 762.102 756.927 762.236C756.95 762.37 757.004 762.496 757.084 762.606C757.165 762.715 757.27 762.804 757.391 762.865C757.513 762.926 757.647 762.957 757.783 762.957C763.928 762.35 770.552 762.479 776.311 760.013C779.678 758.578 783.487 755.303 781.868 751.163ZM766.891 760.142C763.891 760.51 760.874 760.731 757.893 761.209C760.646 758.644 763.526 756.218 766.522 753.941C767.985 752.859 769.522 751.882 771.122 751.015C773.606 749.709 782.604 747.906 779.458 755.008C777.728 758.946 770.479 759.7 766.891 760.142Z" fill="#263238"/>
<path d="M893.833 649.098C893.833 649.098 905.499 691.418 885.149 703.82C871.551 712.173 811.457 700.618 808.899 693.203C804.078 679.164 804.078 674.03 804.078 674.03L819.497 748.421L743.8 749.304C743.8 749.304 729.595 687.756 733.238 622.344C734.6 598.204 767.057 590.88 789.653 602.896C811.549 614.543 850.759 646.89 850.759 646.89L893.833 649.098Z" fill="#37474F"/>
<path d="M813.091 704.83C809.024 694.839 809.411 690.92 799.143 659.934C797.782 655.794 796.641 651.581 795.463 647.386C794.286 643.19 792.703 638.719 791.783 634.303C791.783 634.082 791.397 634.174 791.452 634.303C792.63 638.13 793.403 642.086 794.415 645.95C795.427 649.814 796.402 653.55 797.469 657.322C797.929 658.959 798.407 660.578 798.867 662.198C798.665 661.866 798.463 661.535 798.279 661.204C797.377 659.677 796.439 658.15 795.555 656.641C793.715 653.55 791.342 650.624 789.668 647.441C789.576 647.238 789.244 647.441 789.373 647.606C791.213 650.698 792.667 654.138 794.47 657.322C795.335 658.849 796.31 660.358 797.193 661.866C797.987 663.277 798.898 664.619 799.916 665.878C801.296 670.662 804.295 682.18 805.767 686.946C810.459 701.923 808.914 697.047 812.41 705.088C812.52 705.548 813.275 705.254 813.091 704.83Z" fill="#263238"/>
<path d="M778.614 736.129C790.022 736.001 801.393 735.357 812.782 735.136C813.003 735.136 813.04 734.805 812.782 734.805C801.411 734.805 790.077 734.289 778.724 734.437C767.371 734.584 755.945 735.117 744.555 735.504C744.261 735.504 744.224 735.964 744.555 735.964C755.908 736.001 767.279 736.24 778.614 736.129Z" fill="#263238"/>
<path d="M806.54 732.321C805.509 727.28 804.056 722.349 802.712 717.381C801.369 712.413 800.063 707.445 798.683 702.495C795.941 692.577 793.071 682.697 790.219 672.816C788.6 667.204 786.852 661.629 785.14 656.035C785.14 656.001 785.127 655.968 785.103 655.944C785.078 655.92 785.046 655.906 785.012 655.906C784.977 655.906 784.945 655.92 784.921 655.944C784.896 655.968 784.883 656.001 784.883 656.035C789.961 675.968 795.42 695.797 801.259 715.522C802.896 721.042 804.405 726.802 806.374 732.285C806.411 732.469 806.576 732.432 806.54 732.321Z" fill="#263238"/>
<path d="M885.148 703.82C905.517 691.327 893.851 649.08 893.851 649.08L857.511 647.24L808.07 690.701L808.898 693.13C811.437 700.619 871.55 712.174 885.148 703.82Z" fill="#263238"/>
<path d="M743.359 747.593L743.727 749.304L819.425 748.421L807.557 691.16L743.359 747.593Z" fill="#263238"/>
<path d="M1048.89 805.37C1049.56 809.05 1038.92 811.313 1034.17 809.344C1030.27 807.132 1026.52 804.674 1022.93 801.984C1011.15 793.575 994.797 781.174 994.797 781.174L939.174 784.541L908.133 727.335C908.133 727.335 959.285 724.373 962.799 722.57L963.443 722.238C979.433 714.087 992.718 707.794 994.245 708.641C998.33 710.83 1048.19 801.616 1048.89 805.37Z" fill="#D3766A"/>
<path d="M953.117 723.985L982.392 781.89L994.885 781.117C994.885 781.117 1011.26 793.5 1023.04 801.927C1026.62 804.62 1030.37 807.078 1034.26 809.287C1039.01 811.256 1049.64 809.048 1048.98 805.313C1048.32 801.578 998.418 710.774 994.333 708.529C992.824 707.682 979.521 714.049 963.532 722.126C963.311 722.218 963.108 722.347 962.888 722.458C959.687 723.28 956.416 723.791 953.117 723.985Z" fill="#EBEBEB"/>
<path d="M1049.96 806.123C1049.26 802.296 998.438 709.928 994.187 707.647C992.623 706.745 978.731 713.387 962.171 721.87L961.656 722.146L993.838 782.111L994.831 781.522C994.831 781.522 1030.12 808.166 1034.98 810.19C1039.84 812.214 1050.64 809.932 1049.96 806.123Z" fill="#FF4A37"/>
<path d="M1045.8 807.043C1036.84 791.679 1002.14 728.88 994.445 713.019C994.445 712.89 994.445 712.853 994.445 713.019C1003.65 728.052 1037.85 791.127 1045.97 806.859C1046.22 807.245 1045.98 807.374 1045.8 807.043Z" fill="#263238"/>
<path d="M997.646 788.643C993.138 783.123 989.937 775.137 991.721 768.053C991.721 767.777 992.181 767.869 992.237 768.053C993.569 774.948 995.641 781.678 998.419 788.127C998.487 788.23 998.512 788.355 998.488 788.476C998.464 788.597 998.393 788.703 998.29 788.771C998.188 788.84 998.062 788.865 997.941 788.84C997.821 788.816 997.715 788.745 997.646 788.643V788.643Z" fill="#263238"/>
<path d="M1002.8 791.606C998.27 786.086 995.087 778.082 996.871 770.998C996.871 770.722 997.331 770.833 997.368 770.998C998.689 777.933 1000.75 784.706 1003.51 791.201C1003.53 791.29 1003.51 791.38 1003.47 791.46C1003.43 791.54 1003.37 791.606 1003.29 791.65C1003.22 791.694 1003.13 791.713 1003.04 791.705C1002.95 791.697 1002.87 791.663 1002.8 791.606Z" fill="#263238"/>
<path d="M1007.86 794.549C1003.33 789.029 1000.15 781.043 1001.93 773.959C1001.93 773.683 1002.39 773.775 1002.45 773.959C1003.78 780.857 1005.85 787.593 1008.61 794.052C1008.65 794.102 1008.67 794.157 1008.68 794.215C1008.69 794.274 1008.69 794.334 1008.68 794.392C1008.67 794.45 1008.64 794.505 1008.61 794.554C1008.58 794.603 1008.53 794.645 1008.48 794.678C1008.43 794.71 1008.38 794.733 1008.32 794.744C1008.26 794.755 1008.2 794.755 1008.14 794.743C1008.09 794.731 1008.03 794.708 1007.98 794.674C1007.93 794.641 1007.89 794.599 1007.86 794.549V794.549Z" fill="#263238"/>
<path d="M995.898 796.427C996.873 790.227 995.144 783.823 994.224 777.733C994.192 777.601 994.129 777.479 994.04 777.376C993.952 777.273 993.84 777.192 993.715 777.14C993.59 777.088 993.454 777.066 993.318 777.077C993.183 777.087 993.052 777.129 992.936 777.199C992.919 777.177 992.897 777.158 992.871 777.145C992.845 777.132 992.817 777.126 992.789 777.126C992.76 777.126 992.732 777.132 992.706 777.145C992.681 777.158 992.659 777.177 992.641 777.199C988.239 782.048 985.187 787.968 983.791 794.367C983.055 798.047 984.03 803.419 988.686 803.99C993.065 804.523 995.328 800.034 995.898 796.427ZM991.758 800.696C985.631 805.48 985.171 796.317 985.834 793.575C986.293 791.817 986.864 790.09 987.545 788.405C989.016 784.941 990.668 781.557 992.494 778.267C992.752 781.284 993.267 784.247 993.654 787.264C994.169 790.834 995.199 798.065 991.758 800.696Z" fill="#263238"/>
<path d="M972.029 761.872C969.011 765.46 971.919 770.005 975.01 772.25C980.387 775.983 986.649 778.242 993.171 778.8C993.199 778.8 993.227 778.794 993.253 778.783C993.278 778.772 993.302 778.755 993.321 778.734C993.34 778.714 993.354 778.689 993.363 778.662C993.372 778.636 993.376 778.607 993.373 778.579C993.507 778.55 993.633 778.49 993.741 778.404C993.848 778.318 993.933 778.208 993.991 778.083C994.048 777.958 994.075 777.821 994.07 777.684C994.065 777.546 994.028 777.412 993.962 777.291C990.466 772.213 987.375 766.343 982.443 762.479C979.573 760.235 974.863 758.468 972.029 761.872ZM987.099 770.667C988.939 773.133 990.521 775.654 992.379 778.027C988.805 776.856 985.293 775.505 981.855 773.979C980.206 773.204 978.608 772.325 977.071 771.348C974.715 769.784 968.809 762.774 976.555 762.148C980.824 761.762 984.983 767.742 987.099 770.667Z" fill="#263238"/>
<path d="M845.955 638.758C844.823 649.055 844.209 659.403 844.115 669.762C844.115 669.762 772.281 707.445 769.006 743.362C767.847 756.039 769.539 779.812 794.416 790.65C822.219 802.757 975.84 794.422 975.84 794.422L956.649 723.692H888.882C888.882 723.692 936.722 731.31 941.892 699.441C946.713 669.835 928.534 638.831 928.534 638.831L845.955 638.758Z" fill="#37474F"/>
<path d="M959.96 790.87C958.267 782.719 956.629 774.531 954.753 766.417C952.876 758.302 950.833 750.206 948.699 742.147C948.092 739.866 947.466 737.602 946.859 735.339C946.565 734.254 946.27 733.168 945.957 732.101C945.645 731.034 945.387 729.874 944.964 728.844C944.964 728.734 944.78 728.844 944.798 728.844C945.075 730.952 945.481 733.041 946.013 735.1L947.282 741.006C948.165 745.054 949.073 749.09 950.005 753.114C951.845 761.21 953.906 769.214 956.022 777.236C957.2 781.781 958.414 786.326 959.61 790.87C959.684 791.202 960.015 791.202 959.96 790.87Z" fill="#263238"/>
<path d="M912.285 723.619C906.765 723.214 901.245 723.048 895.725 722.938C890.205 722.827 884.685 722.938 879.165 722.938C873.645 722.938 868.125 723.343 862.605 723.821C857.111 724.242 851.652 725.035 846.266 726.195L850.35 725.661L854.454 725.275C857.177 725.035 859.974 724.815 862.66 724.686C868.18 724.373 873.7 724.152 879.128 724.06C884.556 723.968 890.168 723.821 895.596 723.747L912.285 723.619Z" fill="#263238"/>
<path d="M913.482 644.553C915.937 650.855 918.068 657.279 919.866 663.799C921.709 670.287 923.019 676.915 923.786 683.616C924.156 686.952 924.224 690.314 923.988 693.662C923.822 696.976 922.996 700.222 921.559 703.212C920.813 704.653 919.816 705.949 918.615 707.039C917.373 708.119 916.022 709.069 914.586 709.873C911.663 711.432 908.577 712.666 905.386 713.553C898.88 715.277 892.247 716.477 885.55 717.141C878.853 717.932 872.118 718.466 865.31 719.165C858.498 719.728 851.735 720.773 845.07 722.293C841.702 723.055 838.448 724.255 835.392 725.862C832.37 727.531 829.544 729.53 826.965 731.824L825.438 733.186H827.498L882.294 732.45L909.691 732.229C918.891 732.229 927.944 732.229 937.07 732.431C927.962 731.898 918.818 731.75 909.691 731.585C900.565 731.419 891.42 731.419 882.275 731.382H854.988L827.59 731.64L828.124 732.965C830.615 730.768 833.343 728.855 836.257 727.261C839.198 725.729 842.329 724.59 845.567 723.875C852.146 722.441 858.807 721.415 865.513 720.802C872.229 720.085 878.963 719.514 885.753 718.686C892.526 718.001 899.233 716.77 905.809 715.006C909.125 714.077 912.319 712.755 915.322 711.069C916.828 710.2 918.24 709.176 919.535 708.014C920.825 706.807 921.89 705.38 922.682 703.801C924.147 700.652 924.972 697.243 925.11 693.773C925.298 690.365 925.181 686.948 924.761 683.561C923.889 676.824 922.436 670.175 920.418 663.689C918.479 657.181 916.163 650.791 913.482 644.553V644.553Z" fill="#263238"/>
<path d="M853.758 638.003C853.758 637.969 853.744 637.936 853.72 637.912C853.696 637.888 853.663 637.874 853.629 637.874C853.595 637.874 853.562 637.888 853.538 637.912C853.514 637.936 853.5 637.969 853.5 638.003C853.206 640.45 852.359 654.434 851.936 659.715C851.771 661.555 851.936 664.94 849.139 664.94C846.968 664.94 845.901 662.567 845.662 660.727C845.367 658.5 846.563 642.327 846.839 636.807C846.839 636.66 846.6 636.641 846.563 636.807C845.57 642.235 843.638 659.457 844.227 661.868C844.361 662.817 844.741 663.715 845.328 664.474C845.915 665.232 846.69 665.824 847.575 666.192C847.41 668.318 847.441 670.456 847.667 672.576C847.667 672.76 848.219 672.816 848.275 672.576C848.275 671.307 848.863 666.412 848.845 666.376C849.512 666.436 850.183 666.322 850.793 666.044C851.403 665.767 851.93 665.336 852.323 664.793C854.255 662.401 853.758 644.24 853.758 638.003Z" fill="#263238"/>
<path d="M861.538 679.512C859.588 678.151 857.564 676.918 855.522 675.722C853.479 674.526 851.4 673.367 849.302 672.244C847.205 671.122 845.107 670.073 842.936 669.079C840.765 668.086 838.612 667.129 836.367 666.338C837.379 666.963 838.428 667.515 839.44 668.178L842.55 669.907C844.61 671.067 846.708 672.171 848.787 673.293C850.866 674.416 852.982 675.483 855.117 676.531L858.3 678.077C859.386 678.519 860.453 678.96 861.538 679.512Z" fill="#263238"/>
<path d="M912.639 668.253C908.83 668.253 896.925 668.934 891.258 664.15C886.677 660.267 884.653 647.056 883.898 643.413C883.898 643.229 883.604 643.302 883.604 643.413C883.514 647.514 884.028 651.606 885.131 655.557C886.051 658.906 887.302 662.641 890.007 664.996C893.016 667.244 896.617 668.562 900.366 668.786C904.466 669.259 908.61 669.197 912.694 668.602C912.723 668.58 912.745 668.551 912.758 668.517C912.771 668.484 912.775 668.447 912.769 668.411C912.764 668.376 912.749 668.342 912.726 668.314C912.703 668.286 912.673 668.265 912.639 668.253V668.253Z" fill="#263238"/>
<path d="M919.497 518.881C920.756 519.657 922.21 520.056 923.688 520.031C925.166 520.007 926.606 519.56 927.839 518.744C929.071 517.928 930.044 516.776 930.643 515.424C931.242 514.073 931.441 512.578 931.218 511.117C932.585 511.907 934.175 512.222 935.74 512.012C937.304 511.802 938.756 511.08 939.866 509.957C940.973 508.706 941.584 507.093 941.584 505.422C941.584 503.751 940.973 502.138 939.866 500.886C940.769 502.165 941.219 503.71 941.142 505.274C941.065 506.838 940.467 508.331 939.443 509.516C938.576 510.406 937.466 511.02 936.252 511.282C935.037 511.544 933.773 511.441 932.616 510.988C933.795 510.972 934.957 510.716 936.033 510.235C937.109 509.754 938.075 509.059 938.872 508.191C939.735 507.192 940.282 505.958 940.442 504.648C940.603 503.338 940.37 502.009 939.774 500.831C941.157 500.209 942.376 499.273 943.335 498.098C944.293 496.923 944.964 495.54 945.294 494.06C945.529 492.789 945.386 491.476 944.882 490.286C944.378 489.095 943.536 488.079 942.46 487.362C943.658 486.516 944.576 485.331 945.095 483.959C945.615 482.588 945.713 481.092 945.377 479.665C945.041 478.237 944.286 476.943 943.209 475.947C942.132 474.952 940.782 474.3 939.332 474.077C940.101 473.367 940.678 472.476 941.011 471.484C941.344 470.493 941.423 469.434 941.24 468.404C941.057 467.374 940.617 466.407 939.963 465.591C939.308 464.776 938.458 464.138 937.492 463.737C937.973 463.091 938.258 462.322 938.314 461.519C938.369 460.717 938.193 459.915 937.805 459.21C937.325 458.42 936.691 457.733 935.943 457.19C935.194 456.646 934.345 456.257 933.444 456.045C933.526 455.215 933.4 454.377 933.079 453.606C932.758 452.836 932.252 452.157 931.604 451.629C930.726 450.999 929.654 450.7 928.576 450.784C927.499 450.868 926.486 451.331 925.716 452.089C924.087 449.485 921.561 447.567 918.614 446.698C917.368 446.405 916.063 446.481 914.86 446.92C913.657 447.358 912.608 448.138 911.843 449.164C910.956 448.249 909.886 447.533 908.702 447.062C907.519 446.591 906.249 446.377 904.976 446.432C903.704 446.488 902.457 446.813 901.319 447.385C900.181 447.957 899.178 448.764 898.374 449.752C897.398 449.223 896.3 448.958 895.19 448.983C894.079 449.009 892.995 449.325 892.044 449.9C890.702 450.633 889.564 451.689 888.732 452.972C887.815 452.544 886.784 452.419 885.791 452.618C884.798 452.817 883.894 453.328 883.212 454.077C882.604 454.774 882.158 455.598 881.907 456.489C881.655 457.38 881.605 458.316 881.759 459.229C881.518 459.715 881.172 460.142 880.747 460.48C879.673 461.314 878.822 462.4 878.27 463.643C877.718 464.885 877.481 466.245 877.582 467.601C876.84 467.893 876.17 468.341 875.615 468.914C875.06 469.486 874.633 470.17 874.363 470.921C874.093 471.671 873.986 472.471 874.05 473.265C874.113 474.06 874.345 474.833 874.73 475.531C873.436 476.577 872.607 478.092 872.425 479.746C872.242 481.4 872.72 483.06 873.755 484.363C872.794 485.271 872.041 486.376 871.545 487.601C871.05 488.827 870.825 490.145 870.884 491.465C870.865 492.508 871.151 493.534 871.707 494.416C872.263 495.299 873.064 496 874.012 496.433C873.571 497.09 873.387 497.887 873.496 498.671C873.604 499.455 873.998 500.171 874.601 500.684C875.035 501.096 875.517 501.454 876.036 501.751C876.713 502.066 877.335 502.489 877.876 503.002C878.232 503.659 878.428 504.39 878.447 505.137C878.572 505.631 878.744 506.111 878.962 506.572C879.811 508.278 881.216 509.644 882.945 510.443C884.675 511.243 886.625 511.428 888.475 510.969C888.91 512.203 889.691 513.284 890.726 514.084C891.761 514.884 893.005 515.367 894.308 515.477C895.142 515.606 895.985 515.661 896.828 515.643C897.581 515.574 898.335 515.748 898.981 516.14C899.404 516.416 899.754 516.765 900.177 517.041C900.87 517.426 901.634 517.664 902.422 517.74C903.21 517.816 904.006 517.728 904.759 517.483C906.912 524.622 915.854 524.493 919.497 518.881ZM883.194 455.291C883.78 454.436 884.617 453.783 885.589 453.424C886.561 453.065 887.621 453.016 888.622 453.285L888.512 453.525C888.512 453.525 887.812 453.525 887.481 453.525C886.875 453.624 886.287 453.81 885.733 454.077C884.562 454.631 883.582 455.521 882.918 456.634C882.633 457.133 882.411 457.664 882.256 458.217V458.419C882.279 457.31 882.603 456.229 883.194 455.291V455.291ZM931.476 453.451C930.759 452.751 929.843 452.292 928.854 452.137C927.865 451.982 926.852 452.139 925.956 452.586V452.457C926.683 451.75 927.639 451.326 928.651 451.262C929.663 451.198 930.665 451.498 931.476 452.108C932.057 452.559 932.509 453.156 932.787 453.837C933.064 454.519 933.158 455.261 933.058 455.99V455.99C932.794 455.005 932.251 454.117 931.494 453.432L931.476 453.451ZM905.274 517.52C906.436 519.464 908.312 520.878 910.502 521.459C912.692 522.04 915.022 521.742 916.995 520.629C912.836 523.371 907.611 523.316 905.274 517.52Z" fill="#263238"/>
<path d="M886.749 542.654C891.073 543.758 901.837 537.502 906.823 531.357C907.154 530.933 907.338 525.837 907.853 519.746C908.166 516.066 908.626 511.908 909.307 508.154L884.78 509.589C885.265 514.492 885.147 519.435 884.43 524.309C884.33 524.825 884.182 525.33 883.989 525.818C883.984 525.904 883.984 525.99 883.989 526.076C882.903 528.946 879.977 540.961 886.749 542.654Z" fill="#AD6359"/>
<path d="M886.306 526.702C885.495 526.574 884.695 526.384 883.914 526.131C883.914 526.021 883.914 525.947 883.914 525.874C884.124 525.391 884.272 524.885 884.356 524.365C885.071 519.491 885.189 514.548 884.705 509.645L907.466 508.32C905.46 514.135 899.02 528.707 886.306 526.702Z" fill="#263238"/>
<path d="M920 479.635C920.46 488.485 910.193 511.117 903.035 514.944C892.658 520.464 878.618 517.759 874.644 505.965C870.798 494.52 884.69 465.264 892.4 462.081C903.808 457.407 919.356 466.589 920 479.635Z" fill="#AD6359"/>
<path d="M892.103 487.215C892.103 487.215 892.195 487.344 892.103 487.417C891.312 488.889 890.649 490.711 891.753 491.888C891.753 491.888 891.753 491.999 891.753 491.888C890.208 490.895 891.109 488.484 892.103 487.215Z" fill="#263238"/>
<path d="M894.238 486.33C896.722 487.342 894.495 492.274 892.177 491.317C889.858 490.36 892.14 485.466 894.238 486.33Z" fill="#263238"/>
<path d="M884.118 483.277C884.118 483.277 883.97 483.277 883.934 483.369C883.29 484.915 882.296 486.571 880.695 486.461C880.695 486.461 880.695 486.461 880.695 486.553C882.462 487.068 883.75 484.841 884.118 483.277Z" fill="#263238"/>
<path d="M883.474 481.068C881.119 479.78 878.69 484.601 880.88 485.816C883.069 487.03 885.461 482.08 883.474 481.068Z" fill="#263238"/>
<path d="M897.182 484.951C896.622 484.471 896.087 483.961 895.581 483.424C894.952 482.971 894.486 482.325 894.257 481.584C894.229 481.334 894.287 481.081 894.421 480.868C894.554 480.654 894.756 480.492 894.993 480.407C895.486 480.301 895.998 480.329 896.477 480.487C896.955 480.646 897.383 480.929 897.716 481.308C898.506 481.975 899.018 482.914 899.151 483.939C899.163 484.173 899.107 484.405 898.99 484.607C898.874 484.81 898.701 484.974 898.493 485.081C898.286 485.188 898.051 485.232 897.819 485.209C897.586 485.186 897.365 485.097 897.182 484.951V484.951Z" fill="#263238"/>
<path d="M882.628 478.401C883.35 478.568 884.081 478.691 884.818 478.769C885.563 479.027 886.373 479.027 887.118 478.769C887.338 478.646 887.509 478.45 887.603 478.216C887.697 477.982 887.707 477.722 887.633 477.481C887.429 477.02 887.104 476.623 886.693 476.331C886.281 476.04 885.799 475.865 885.296 475.825C884.287 475.587 883.225 475.731 882.315 476.23C882.124 476.357 881.973 476.536 881.879 476.745C881.785 476.955 881.753 477.187 881.786 477.414C881.819 477.642 881.915 477.855 882.064 478.03C882.213 478.204 882.409 478.333 882.628 478.401Z" fill="#263238"/>
<path d="M888.001 502.468C887.488 502.759 886.892 502.869 886.308 502.781C885.747 502.51 885.246 502.128 884.836 501.658C884.836 501.658 884.726 501.658 884.744 501.658C884.825 502.059 885.013 502.43 885.288 502.731C885.564 503.033 885.916 503.253 886.308 503.369C886.66 503.427 887.022 503.382 887.348 503.238C887.675 503.094 887.953 502.859 888.148 502.56L888.001 502.468Z" fill="#263238"/>
<path d="M888.459 497.168C887.801 497.598 887.06 497.887 886.284 498.017C885.509 498.146 884.714 498.114 883.951 497.922C883.306 497.749 882.687 497.489 882.111 497.15L881.78 496.947C881.633 496.92 881.49 496.87 881.357 496.8C881.282 496.748 881.227 496.673 881.201 496.586C881.174 496.5 881.177 496.406 881.21 496.322V496.322C881.233 496.263 881.264 496.207 881.302 496.156V496.156V496.027C881.817 494.831 882.737 493.102 882.737 493.102C882.203 493.102 879.572 493.102 879.885 492.513C882.446 487.308 885.529 482.376 889.085 477.793C889.107 477.759 889.142 477.735 889.181 477.726C889.221 477.718 889.262 477.725 889.297 477.747C889.331 477.769 889.355 477.804 889.363 477.843C889.372 477.883 889.365 477.924 889.343 477.959C887.043 482.798 883.823 487.159 881.486 492.035C882.425 492.026 883.36 492.149 884.264 492.402C884.411 492.531 882.424 495.715 882.24 496.267C883.159 496.797 884.174 497.138 885.227 497.268C886.28 497.397 887.348 497.313 888.367 497.021C888.533 496.929 888.607 497.095 888.459 497.168Z" fill="#263238"/>
<path d="M883.016 496.801C883.277 497.925 883.822 498.964 884.598 499.818C885.036 500.28 885.609 500.589 886.236 500.702C887.597 500.922 888.076 499.818 888.352 498.77C888.452 498.205 888.489 497.631 888.462 497.058C886.665 497.55 884.758 497.46 883.016 496.801V496.801Z" fill="#263238"/>
<path d="M884.594 499.893C885.031 500.355 885.605 500.664 886.231 500.776C887.593 500.997 888.071 499.893 888.347 498.844C887.694 498.575 886.97 498.532 886.29 498.722C885.61 498.912 885.013 499.324 884.594 499.893V499.893Z" fill="#FF99BA"/>
<path d="M882.773 473.839C883.675 474.096 887.631 472.974 889.655 467.877C891.255 468.834 895.579 467.325 897.235 466.203C897.067 467.534 897.234 468.887 897.722 470.138C898.21 471.388 899.003 472.497 900.029 473.362C901.056 474.227 902.282 474.822 903.597 475.092C904.912 475.361 906.274 475.297 907.558 474.906C906.883 477.221 906.973 479.693 907.816 481.953C908.66 483.938 910.108 485.605 911.956 486.719V486.719C909.582 490.748 912.213 495.624 916.003 495.919C916.352 495.955 916.704 495.955 917.052 495.919C918.04 495.971 919.026 495.791 919.931 495.391C920.836 494.992 921.633 494.384 922.26 493.619C923.09 492.508 923.538 491.159 923.538 489.773C923.538 488.387 923.09 487.038 922.26 485.927C923.253 485.283 924.035 484.36 924.506 483.273C924.978 482.186 925.118 480.985 924.909 479.819C924.633 478.328 923.18 477.187 923.492 475.623C923.758 474.368 923.758 473.07 923.492 471.815C923.306 470.811 922.908 469.858 922.324 469.02C921.74 468.183 920.984 467.479 920.107 466.957C919.307 466.564 918.66 465.917 918.267 465.117C918.005 464.584 917.71 464.067 917.383 463.571C916.816 462.753 916.113 462.037 915.304 461.455C914.362 460.755 913.284 460.26 912.14 460.002C910.907 459.726 909.49 460.002 908.46 459.284C906.752 458.489 904.924 457.985 903.05 457.794C900.394 457.521 897.719 458.081 895.395 459.395C893.246 459.493 891.211 460.392 889.691 461.915C888.06 463.227 886.834 464.976 886.159 466.957C886.159 466.957 885.091 467.141 883.877 469.036C882.94 470.451 882.548 472.157 882.773 473.839V473.839ZM911.919 486.976C911.417 489.173 911.697 491.477 912.71 493.49C911.966 492.595 911.496 491.505 911.355 490.35C911.215 489.194 911.411 488.023 911.919 486.976V486.976ZM897.622 466.46C897.736 467.961 898.209 469.412 899 470.693C899.79 471.973 900.876 473.046 902.167 473.82C900.739 473.217 899.535 472.184 898.721 470.865C897.906 469.546 897.522 468.007 897.622 466.46V466.46Z" fill="#263238"/>
<path d="M910.12 497.703C910.12 497.703 917.48 491.521 920.479 494.355C923.479 497.188 916.413 507.235 911.942 507.584C911.374 507.678 910.793 507.656 910.234 507.521C909.674 507.385 909.148 507.138 908.686 506.795C908.224 506.451 907.836 506.018 907.545 505.522C907.254 505.025 907.066 504.475 906.992 503.904L910.12 497.703Z" fill="#AD6359"/>
<path d="M940.366 664.774C940.09 665.032 840.693 648.49 839.847 647.313C839.516 646.871 832.248 641.48 835.762 629.87C836.737 626.668 841.153 623.043 842.699 618.664C851.899 592.186 869.36 541.016 881.596 527.75C886.436 522.487 901.248 520.813 907.356 526.848C933.319 552.737 941.323 663.873 940.366 664.774Z" fill="#EBEBEB"/>
<path d="M884.432 524.4C884.432 524.4 862.352 622.067 861.542 634.211C860.732 646.355 868.718 674.176 868.718 674.176C883.916 691.969 950.617 705.364 950.617 705.364C950.617 705.364 931.996 541.954 909.308 526.884C897.385 518.991 884.432 524.4 884.432 524.4Z" fill="#FF4A37"/>
<path d="M936.407 636.384C935.527 636.848 934.775 637.523 934.22 638.348C933.664 639.173 933.322 640.123 933.224 641.113C932.314 643.843 932.037 646.743 932.414 649.596C932.635 651.16 933.316 653.441 935.34 653.055C937.364 652.668 938.449 649.228 939.02 647.535C939.59 645.842 941.08 634.415 936.407 636.384ZM920.509 649.522C918.32 651.362 918.559 655.042 919.019 657.563C919.354 659.6 920.032 661.566 921.024 663.377C921.477 664.402 922.261 665.244 923.251 665.769C925.974 666.891 926.176 663.304 926.379 661.5C926.912 658.146 926.491 654.709 925.164 651.583C924.263 649.724 922.552 647.848 920.509 649.522ZM928.826 623.891C927.152 623.688 926.213 624.976 925.735 626.669C925.102 628.639 924.871 630.717 925.054 632.778C925.201 634.011 925.459 636.164 926.894 636.716C928.329 637.268 929.396 635.796 929.893 634.692C930.758 632.631 932.543 624.369 928.826 623.891V623.891ZM943.38 683.672C942.019 682.697 940.584 683.36 939.332 684.611C937.841 686.044 936.647 687.757 935.818 689.652C935.34 690.811 934.548 692.817 935.505 693.958C936.462 695.099 938.136 694.381 939.093 693.645C940.878 692.265 946.416 685.88 943.38 683.672V683.672ZM871.142 611.397C869.302 613.642 870.369 617.23 871.326 619.585C872.056 621.517 873.121 623.304 874.472 624.866C875.136 625.755 876.073 626.402 877.14 626.706C880.048 627.258 879.514 623.688 879.33 621.885C879.162 618.496 878.054 615.221 876.128 612.428C874.859 610.882 872.78 609.336 871.142 611.397V611.397ZM869.744 634.452C868.18 635.06 867.904 636.642 868.327 638.372C868.704 640.402 869.473 642.339 870.59 644.076C871.308 645.088 872.54 646.872 874.031 646.707C875.521 646.541 875.871 644.72 875.724 643.505C875.558 641.279 873.258 633.146 869.744 634.452V634.452ZM909.708 624.13C911.328 624.038 912.855 626.356 913.572 627.552C914.708 629.561 915.434 631.775 915.707 634.066C915.872 635.391 916.351 638.169 915.118 639.181C913.609 640.396 912.174 638.997 911.125 637.102C909.001 634.393 907.882 631.031 907.96 627.589C907.96 626.411 908.108 624.24 909.708 624.13V624.13ZM916.664 670.277C914.511 671.878 915.431 675.006 916.277 677.048C917.641 680.308 919.916 683.106 922.828 685.107C924.06 685.954 925.882 686.947 927.188 686.469C928.495 685.991 929.028 684.923 928.936 683.212C928.353 679.595 926.625 676.261 924.005 673.7C922.386 671.878 919.46 668.198 916.664 670.277V670.277ZM930.243 670.866C931.678 675.668 934.346 677.692 935.597 677.14C938.063 676.036 937.621 671.823 936.701 668.713C935.965 666.284 933.536 662.236 931.678 662.623C930.132 662.935 928.918 666.413 930.243 670.866V670.866ZM880.563 646.946C879.753 651.896 881.262 654.876 882.642 654.932C885.347 654.932 886.782 651.031 887.316 647.829C887.72 645.327 887.316 640.616 885.476 640.156C883.948 639.733 881.354 642.346 880.581 646.928L880.563 646.946ZM911.475 550.696C910.487 550.58 909.486 550.711 908.561 551.077C907.636 551.443 906.817 552.033 906.176 552.793C903.864 554.531 901.976 556.771 900.656 559.344C899.956 560.742 899.239 563.024 901.116 563.833C902.992 564.643 905.844 562.453 907.261 561.312C908.678 560.172 916.461 551.708 911.493 550.677L911.475 550.696ZM890.94 552.536C888.107 552.793 886.175 555.995 885.144 558.313C884.263 560.18 883.709 562.184 883.507 564.238C883.303 565.341 883.471 566.48 883.985 567.476C885.586 569.942 887.812 567.09 888.99 565.728C891.32 563.264 892.919 560.199 893.608 556.878C893.921 554.817 893.572 552.278 890.959 552.517L890.94 552.536ZM909.101 532.976C907.832 531.854 906.323 532.388 904.98 533.51C903.347 534.78 901.984 536.363 900.968 538.165C900.38 539.269 899.386 541.183 900.214 542.434C901.042 543.685 902.79 543.096 903.894 542.434C905.752 541.256 911.898 535.442 909.12 532.958L909.101 532.976ZM886.874 575.609C885.347 580.393 886.396 583.558 887.739 583.816C890.388 584.312 892.431 580.577 893.424 577.504C894.197 575.094 894.473 570.365 892.725 569.629C891.29 569.004 888.309 571.193 886.874 575.609ZM920.086 602.05C919.432 602.612 918.969 603.364 918.761 604.202C918.553 605.039 918.611 605.921 918.927 606.724C919.177 608.103 919.649 609.433 920.325 610.661C920.767 611.452 921.613 612.372 922.588 611.747C923.564 611.121 923.674 609.134 923.6 608.067C923.527 606.724 922.938 600.155 920.086 602.05ZM913.278 569.077C912.535 568.64 911.675 568.443 910.816 568.512C909.956 568.581 909.139 568.914 908.476 569.464C907.25 570.146 906.139 571.015 905.182 572.04C904.575 572.72 903.968 573.88 904.869 574.524C905.771 575.168 907.703 574.726 908.678 574.34C909.653 573.953 915.964 571.175 913.278 569.077Z" fill="#263238"/>
<path d="M904.208 548.469C890.427 554.375 829.302 573.217 813.239 561.625C793.772 547.567 775.868 521.734 767.644 512.478C765.583 510.16 803.487 484.878 807.829 490.95C814.582 500.408 827.664 521.09 829.633 522.598C833.074 525.23 873.793 528.505 894.64 530.363C913.445 532.038 912.323 544.973 904.208 548.469Z" fill="#AD6359"/>
<path d="M814.746 501.161C814.746 501.161 811.066 494.077 810.79 493.617C809.57 491.149 808.721 488.514 808.269 485.797C805.951 475.401 793.549 451.573 764.109 447.029C752.775 445.281 746.611 452.549 758.056 456.376C766.133 459.117 771.948 460.332 774.34 461.896C774.34 461.896 762.049 466.293 760.006 473.58C758.2 479.99 756.847 486.52 755.958 493.121C757.125 493.55 758.317 493.906 759.528 494.188C758.973 497.132 759.262 500.174 760.363 502.961C761.463 505.748 763.33 508.167 765.747 509.938L773.641 519.837L814.746 501.161Z" fill="#AD6359"/>
<path d="M804.464 476.23C799.974 472.936 790.314 466.091 780.544 463.35C769.596 460.185 747.681 457.057 745.436 465.19C743.78 471.114 752.042 473.046 752.042 473.046C752.042 473.046 742.713 473.672 742.4 479.358C742.106 484.546 748.583 485.65 748.583 485.65C748.583 485.65 743.063 486.994 743.67 492.054C744.498 498.107 756.09 494.298 762.254 499.726C763.597 500.812 804.464 476.23 804.464 476.23Z" fill="#AD6359"/>
<path d="M779.051 475.365C770.551 471.782 761.162 470.871 752.132 472.752C751.911 472.752 751.837 473.01 752.132 473.01C761.183 472.727 770.235 473.549 779.088 475.457L779.051 475.365Z" fill="#263238"/>
<path d="M775.541 486.313C771.236 484.657 758.558 482.412 748.53 485.319C748.309 485.319 748.236 485.595 748.53 485.577C757.555 484.824 766.636 485.108 775.596 486.423L775.541 486.313Z" fill="#263238"/>
<path d="M833.829 567.236L830.922 522.414C830.922 522.414 880.602 525.579 902.535 530.639C920.935 534.889 919.794 545.819 896.757 552.995C874.935 559.784 833.829 567.236 833.829 567.236Z" fill="#FF4A37"/>
<path d="M848.935 540.261C846.285 539.249 843.139 541.273 841.188 542.892C839.578 544.186 838.197 545.741 837.104 547.492C836.442 548.393 836.093 549.485 836.11 550.602C836.46 553.528 839.698 551.945 841.372 551.246C844.549 550.061 847.333 548.016 849.413 545.34C850.591 543.628 851.4 541.218 848.935 540.261ZM859.846 528.136C859.202 526.59 857.62 526.388 855.908 526.792C853.887 527.222 851.968 528.04 850.26 529.203C849.248 529.939 847.5 531.208 847.702 532.699C847.904 534.189 849.726 534.447 850.94 534.318C853.167 534.116 861.244 531.613 859.846 528.08V528.136ZM893.444 553.988C891.255 554.613 888.9 555.276 886.471 555.828C886.911 554.958 887.545 554.201 888.323 553.614C889.101 553.027 890.003 552.626 890.96 552.442C891.492 552.348 892.04 552.454 892.498 552.739C892.957 553.024 893.294 553.469 893.444 553.988V553.988ZM909.121 532.956C907.852 531.834 906.343 532.368 905 533.49C903.367 534.761 902.004 536.343 900.988 538.145C900.4 539.249 899.406 541.163 900.234 542.414C901.062 543.665 902.81 543.076 903.914 542.414C905.754 541.255 911.9 535.44 909.121 532.956V532.956ZM860.932 536.636C856.019 537.556 853.719 540.004 854.142 541.292C854.988 543.868 859.22 543.868 862.404 543.26C864.906 542.8 869.175 540.795 868.991 538.9C868.844 537.28 865.495 535.772 860.932 536.636V536.636Z" fill="#263238"/>
<path d="M840.58 527.898C841.112 530.726 841.48 533.583 841.684 536.454C841.997 539.416 842.199 542.379 842.42 545.323C842.641 548.267 843.064 560.043 843.174 563.023C843.174 563.152 842.935 563.152 842.917 563.023C842.604 560.079 841.316 548.303 841.077 545.451C840.837 542.599 840.653 539.655 840.543 536.767C840.319 533.822 840.27 530.867 840.396 527.916C840.396 527.916 840.561 527.824 840.58 527.898Z" fill="#263238"/>
<path d="M904.085 550.289C881.28 558.512 857.661 564.273 833.631 567.475C833.631 565.892 833.539 564.31 833.539 562.727C833.723 564.218 833.889 565.708 834.036 567.217L833.797 567.015C839.721 565.874 845.628 564.77 851.516 563.445C868.536 559.765 887.193 554.871 904.085 550.289V550.289Z" fill="#263238"/>
<path d="M903.126 552C900.597 552.949 897.868 553.24 895.195 552.846C897.863 552.662 900.458 552.294 903.126 552Z" fill="#263238"/>
<path d="M880.711 527.031C887.863 527.35 894.953 528.511 901.834 530.49C894.733 529.741 887.68 528.586 880.711 527.031V527.031Z" fill="#263238"/>
<path d="M894.094 528.89C895.876 528.313 897.775 528.199 899.614 528.559C897.787 528.829 895.94 528.94 894.094 528.89V528.89Z" fill="#263238"/>
<path d="M721.412 797.161C717.732 798.431 610.35 798.67 606.265 796.076C604.683 795.119 603.744 779.516 603.137 760.564V759.92C603.008 756.019 597.617 691.84 597.617 691.84L667.537 692.686L672.321 759.073V760.251C672.321 760.251 713.427 778.522 717.64 781.853C721.854 785.183 725.148 795.91 721.412 797.161Z" fill="#D3766A"/>
<path d="M721.392 797.16C717.712 798.448 610.348 798.669 606.263 796.075C604.92 795.265 604.018 783.728 603.43 768.604C620.284 771.4 701.538 784.538 703.415 777.804C703.802 776.368 701.943 774.455 699.478 772.633C705.705 775.356 711.775 778.428 717.657 781.833C721.815 785.145 725.146 795.909 721.392 797.16Z" fill="#263238"/>
<path d="M489.953 442.869C489.953 442.869 579.469 583.28 581.438 592.958C584.511 607.972 599.617 758.282 599.617 758.282L676.456 758.171C676.456 758.171 661.552 625.342 648.506 582.194C639.104 551.116 569.092 447.304 569.092 447.304L489.953 442.869Z" fill="#263238"/>
<path d="M671.291 744.942C659.662 744.63 618.428 743.36 602.917 744.574C602.788 744.574 602.788 744.795 602.917 744.814C608.235 745.715 659.662 745.458 671.31 745.292C671.346 745.278 671.377 745.253 671.398 745.22C671.419 745.188 671.43 745.149 671.428 745.11C671.426 745.072 671.411 745.034 671.387 745.004C671.362 744.974 671.329 744.952 671.291 744.942V744.942Z" fill="#37474F"/>
<path d="M554.835 819.406C550.879 819.535 448.115 788.365 445.06 784.685C443.827 783.305 447.507 768.125 452.42 749.817L452.586 749.247C453.598 745.475 479.174 688.711 479.174 688.711L545.763 709.963L519.065 768.604L518.697 769.726C518.697 769.726 552.663 799.166 555.699 803.637C558.735 808.109 558.791 819.296 554.835 819.406Z" fill="#D3766A"/>
<path d="M554.834 819.406C550.878 819.535 448.113 788.365 445.059 784.685C444.01 783.508 446.531 772.228 450.377 757.582C465.685 765.2 539.543 801.521 543.315 795.596C544.106 794.327 542.892 791.916 541.052 789.506C546.233 793.922 551.148 798.641 555.772 803.637C558.753 808.016 558.79 819.296 554.834 819.406Z" fill="#263238"/>
<path d="M523.331 770.959L447.523 749.56C447.523 749.56 526.643 592.203 526.331 582.286C525.981 573.491 474.498 495.493 471.83 481.086C467.487 457.387 479.374 436.521 490.763 423.678L569.129 447.34C569.129 447.34 562.597 460.846 550.913 469.236C550.913 469.236 598.9 552.827 599.673 580.059C600.446 607.291 523.331 770.959 523.331 770.959Z" fill="#263238"/>
<path d="M524.807 757.289C513.767 753.921 517.024 754.731 506.003 751.493C500.593 749.892 465.118 739.496 459.837 738.889C459.708 738.889 459.653 739.073 459.837 739.128C464.658 741.391 500.317 751.18 505.745 752.67C516.785 755.688 513.675 754.694 524.789 757.62C524.936 757.657 525.028 757.344 524.807 757.289Z" fill="#37474F"/>
<path d="M563.042 466.255C555.415 468.916 548.028 472.222 540.962 476.136C540.903 476.163 540.858 476.212 540.836 476.272C540.813 476.333 540.816 476.4 540.842 476.458C540.869 476.517 540.918 476.562 540.979 476.585C541.039 476.607 541.106 476.605 541.164 476.578C548.524 473.505 556.142 470.561 563.373 467.102C564.054 466.844 563.668 466.053 563.042 466.255Z" fill="#37474F"/>
<path d="M553.842 464.14C553.245 465.513 552.747 466.927 552.352 468.372C551.924 469.474 551.717 470.649 551.745 471.831C551.745 472.052 552.076 472.089 552.205 471.923C552.89 470.889 553.406 469.752 553.732 468.556C554.229 467.249 554.762 465.943 555.222 464.637C555.27 464.458 555.249 464.269 555.163 464.106C555.078 463.942 554.934 463.817 554.76 463.754C554.587 463.692 554.396 463.697 554.226 463.768C554.056 463.84 553.919 463.972 553.842 464.14Z" fill="#37474F"/>
<path d="M554.01 457.001C554.342 455.805 554.673 454.59 555.041 453.321C555.409 452.051 555.869 450.855 556.126 449.641C556.144 449.606 556.173 449.578 556.208 449.563C556.244 449.547 556.284 449.545 556.321 449.556C556.359 449.567 556.391 449.59 556.412 449.623C556.434 449.655 556.443 449.694 556.439 449.733C556.108 450.947 555.942 452.198 555.703 453.413C555.464 454.627 555.206 455.878 554.949 457.093C554.452 459.374 553.79 461.674 553.109 463.901C554.347 463.83 555.554 463.484 556.642 462.889C557.705 462.034 558.476 460.87 558.85 459.558C559.365 458.197 559.825 456.817 560.377 455.455C561.038 453.982 561.574 452.455 561.978 450.892C561.978 450.689 562.327 450.781 562.272 450.892C561.609 454.211 560.61 457.453 559.291 460.57C558.945 461.82 558.161 462.904 557.083 463.625C555.732 464.161 554.286 464.418 552.833 464.379C552.667 464.379 552.428 464.379 552.465 464.14C552.851 461.84 553.348 459.374 554.01 457.001Z" fill="#37474F"/>
<path d="M552.406 471.94C555.295 477.46 558.643 482.649 561.735 488.003C564.826 493.358 567.659 498.546 570.475 503.882C576.179 514.689 581.423 525.729 586.207 537.002C588.562 542.522 590.807 548.19 592.886 553.857C595.092 559.512 596.894 565.316 598.277 571.226C599.582 577.134 599.732 583.239 598.719 589.203C597.514 595.269 595.854 601.235 593.751 607.051C589.403 620.451 584.191 633.555 578.147 646.28C577.945 646.703 577.227 646.28 577.393 645.93C581.772 634.265 586.299 622.654 590.273 610.842C594.119 599.378 598.645 587.492 596.86 575.219C595.866 569.322 594.301 563.536 592.187 557.942C590.163 552.176 587.985 546.485 585.655 540.866C581.073 529.826 575.903 518.97 570.603 508.206C567.641 502.171 564.531 496.21 561.532 490.193C558.533 484.176 555.571 477.938 552.148 472.087C552.001 471.903 552.314 471.756 552.406 471.94Z" fill="#37474F"/>
<path d="M495.238 459.318C496.673 459.098 498.752 459.631 504.935 459.318C506.651 459.21 508.355 458.964 510.032 458.582C511.729 458.344 513.348 457.714 514.76 456.742C517.045 454.656 518.917 452.16 520.28 449.382C521.975 446.542 523.292 443.492 524.2 440.311C524.2 440.127 524.531 440.311 524.494 440.403C524.126 442.243 523.924 444.083 523.408 445.794C522.926 447.46 522.311 449.085 521.568 450.652C520.386 453.766 518.437 456.532 515.901 458.693C513.086 460.753 509.185 461.066 505.8 461.232C503.849 461.342 496.195 460.993 495.183 459.87C494.962 459.778 494.962 459.355 495.238 459.318Z" fill="#37474F"/>
<path d="M463.236 736.845C471.902 715.372 518.436 620.465 527.525 600.685C530.003 595.992 532 591.06 533.487 585.965C534.775 580.445 533.137 575.33 530.874 570.27C526.65 561.015 521.901 552.009 516.651 543.296C511.462 534.537 505.961 525.944 500.533 517.315C494.896 508.87 489.748 500.11 485.113 491.076C480.706 482.589 478.962 472.97 480.109 463.476C481.525 453.89 485.849 444.929 490.486 436.52C491.701 434.294 492.952 432.086 494.166 429.86C494.258 429.694 494.516 429.86 494.424 430.025C489.272 438.839 484.322 448.112 481.82 458.085C480.525 463.003 480.059 468.102 480.44 473.173C480.963 478.299 482.312 483.307 484.433 488.004C488.407 497.204 494.037 505.668 499.318 514.113C504.599 522.559 510.266 531.336 515.529 540.057C520.91 548.807 525.823 557.835 530.249 567.105C532.495 571.163 534.009 575.586 534.72 580.169C535.161 585.229 533.248 590.032 531.224 594.558C522.392 614.264 464.984 734.766 463.714 737.195C463.512 737.434 463.107 737.158 463.236 736.845Z" fill="#37474F"/>
<path d="M583.687 295.595C583.687 295.595 598.627 287.462 611.894 295.595C625.16 303.728 631.471 323.839 629.282 340.601C627.092 357.364 640.929 368.533 642.438 381.081C643.947 393.63 635.611 399.353 632.815 405.921C629.613 413.429 642.438 440.09 609.815 446.273C569.04 454.019 553.437 429.289 557.595 408.847C559.638 398.837 565.342 391.735 565.25 383.621C565.158 375.506 559.325 369.066 562.361 358.799C565.397 348.532 569.408 349.93 571.064 333.793C572.72 317.657 569.243 298.337 583.687 295.595Z" fill="#263238"/>
<path d="M609.039 295.209C617.649 300.687 624.378 308.668 628.322 318.08C630.278 322.731 631.447 327.674 631.781 332.708C632.205 339.277 631.174 345.441 633.621 351.807C637.596 362.038 645.545 370.557 645.177 381.928C644.987 387.244 643.282 392.396 640.264 396.777C636.75 401.929 631.726 405.977 628.782 411.497C628.755 411.546 628.71 411.582 628.657 411.597C628.603 411.613 628.546 411.606 628.497 411.58C628.448 411.553 628.412 411.508 628.397 411.454C628.381 411.401 628.387 411.343 628.414 411.294C630.861 406.4 634.854 402.665 638.166 398.286C642.167 393.191 644.297 386.878 644.201 380.401C643.889 369.582 636.05 361.283 632.389 351.421C630.954 347.085 630.403 342.505 630.769 337.952C630.996 332.449 630.28 326.948 628.653 321.686C625.092 311.042 618.219 301.815 609.039 295.356C609.039 295.356 609.039 295.154 609.039 295.209Z" fill="#263238"/>
<path d="M557.65 405.903C558.681 401.063 561.238 396.703 562.269 391.863C563.501 386.067 562.011 380.29 560.889 374.586C559.288 366.453 559.472 358.78 563.115 351.126C565.72 346.36 568.043 341.445 570.07 336.406C571.97 330.773 573.018 324.887 573.18 318.944C573.18 318.815 573.401 318.815 573.401 318.944C573.536 327.566 571.645 336.1 567.881 343.858C565.654 348.421 562.876 352.708 561.606 357.658C560.345 363.458 560.383 369.465 561.717 375.248C562.585 379.199 563.09 383.221 563.226 387.263C563.012 391.351 562.039 395.364 560.355 399.095C556.453 408.958 556.512 419.947 560.521 429.767C560.521 429.951 560.281 430.062 560.208 429.896C556.848 422.368 555.953 413.97 557.65 405.903V405.903Z" fill="#263238"/>
<path d="M643.429 379.573C643.061 370.667 636.768 364.614 632.941 356.904C630.052 351.071 628.101 344.834 629.058 338.412C629.067 338.392 629.081 338.376 629.099 338.364C629.117 338.352 629.138 338.346 629.159 338.346C629.181 338.346 629.202 338.352 629.22 338.364C629.238 338.376 629.252 338.392 629.261 338.412C628.764 347.722 632.72 356.15 637.945 363.951C641.423 369.122 644.312 374.108 644.33 380.346C644.349 386.583 641.883 391.606 638.35 396.648C635.659 399.985 633.607 403.79 632.297 407.872C631.469 412.15 631.265 416.526 631.689 420.862C631.689 421.083 631.321 421.083 631.303 420.862C630.714 414.183 630.604 407.725 634.026 401.634C638.203 394.164 643.797 388.626 643.429 379.573Z" fill="#263238"/>
<path d="M556.088 399.573C557.55 396.55 559.287 393.667 561.277 390.962C562.863 388.837 563.948 386.381 564.448 383.777C564.948 381.173 564.852 378.49 564.165 375.929C564.165 375.8 564.35 375.745 564.386 375.929C566.042 380.823 566.447 384.89 563.503 389.416C559.382 395.709 555.352 401.45 554.505 408.957C553.015 422.297 560.651 434.717 573.053 441.488C573.087 441.51 573.111 441.545 573.12 441.584C573.128 441.624 573.121 441.665 573.099 441.7C573.077 441.734 573.042 441.758 573.002 441.766C572.963 441.775 572.921 441.767 572.887 441.746C562.491 436.704 555.186 427.559 553.678 416.795C552.85 410.942 553.685 404.974 556.088 399.573V399.573Z" fill="#263238"/>
<path d="M568.086 348.68C567.682 350.336 569.816 363.4 576.716 366.583C578.961 367.595 585.014 355.543 585.014 355.543L585.677 354.77L594.766 343.73L584.978 326.968L583.506 324.668C583.506 324.668 581.206 327.833 578.39 331.807L578.004 332.359L577.526 333.003L576.238 334.843C575.925 335.303 575.612 335.745 575.299 336.242C574.986 336.738 574.637 337.217 574.306 337.714C571.988 341.225 569.91 344.889 568.086 348.68V348.68Z" fill="#D3766A"/>
<path d="M578.383 331.898C577.869 336.021 578.262 340.208 579.533 344.165C580.804 348.121 582.924 351.753 585.743 354.806L594.833 343.766L585.044 327.003L583.572 324.703C583.572 324.703 581.199 327.923 578.383 331.898Z" fill="#263238"/>
<path d="M621.758 326.14C620.158 351.109 605.07 353.225 599.678 352.617C594.821 352.065 578.187 350.593 577.212 325.588C576.237 300.582 588.252 293.443 599.55 293.59C610.847 293.737 623.359 301.171 621.758 326.14Z" fill="#D3766A"/>
<path d="M620.433 320.16C619.872 320.031 619.319 319.871 618.777 319.681C618.168 319.584 617.607 319.294 617.176 318.853C617.067 318.688 617.018 318.491 617.034 318.295C617.051 318.098 617.133 317.912 617.268 317.768C617.571 317.518 617.936 317.354 618.324 317.293C618.712 317.231 619.11 317.275 619.476 317.418C620.259 317.6 620.947 318.065 621.408 318.724C621.501 318.881 621.548 319.061 621.543 319.243C621.538 319.425 621.48 319.602 621.378 319.753C621.275 319.904 621.132 320.022 620.964 320.094C620.797 320.166 620.612 320.189 620.433 320.16V320.16Z" fill="#263238"/>
<path d="M604.26 319.737C604.849 319.737 605.382 319.59 605.971 319.516C606.587 319.525 607.188 319.331 607.682 318.964C607.803 318.809 607.869 318.618 607.869 318.421C607.869 318.225 607.803 318.034 607.682 317.878C607.425 317.583 607.092 317.362 606.72 317.239C606.348 317.116 605.949 317.096 605.566 317.179C604.756 317.234 603.996 317.588 603.432 318.173C603.311 318.319 603.236 318.497 603.216 318.686C603.196 318.874 603.233 319.065 603.322 319.232C603.411 319.4 603.547 319.537 603.714 319.627C603.881 319.717 604.071 319.755 604.26 319.737Z" fill="#263238"/>
<path d="M607.441 326.158C607.441 326.158 607.294 326.158 607.294 326.305C607.294 328.017 606.926 329.985 605.344 330.427V330.537C607.202 330.372 607.662 327.777 607.441 326.158Z" fill="#263238"/>
<path d="M606.027 324.299C603.304 323.931 602.77 329.414 605.291 329.819C607.812 330.224 608.309 324.612 606.027 324.299Z" fill="#263238"/>
<path d="M604.921 324.483C604.406 324.759 603.891 325.255 603.302 325.255C602.713 325.255 602.18 324.63 601.793 324.041H601.701C601.591 325.09 601.885 326.194 602.989 326.47C604.093 326.746 604.829 325.844 605.197 324.814C605.363 324.685 605.124 324.391 604.921 324.483Z" fill="#263238"/>
<path d="M616.64 326.102C616.64 326.102 616.768 326.194 616.75 326.267C616.529 327.942 616.548 329.947 618.02 330.646C618.02 330.646 618.02 330.757 618.02 330.738C616.143 330.278 616.143 327.666 616.64 326.102Z" fill="#263238"/>
<path d="M618.331 324.483C621.073 324.483 620.723 330.003 618.184 330.003C615.645 330.003 616.031 324.428 618.331 324.483Z" fill="#263238"/>
<path d="M619.454 324.924C619.877 325.237 620.264 325.789 620.779 325.862C621.294 325.936 621.864 325.366 622.288 324.832C622.288 325.881 621.828 326.966 620.816 327.095C619.804 327.224 619.27 326.286 619.086 325.255C619.123 325.071 619.288 324.795 619.454 324.924Z" fill="#263238"/>
<path d="M606.154 339.258C606.503 339.699 606.816 340.306 607.423 340.435C608.041 340.522 608.671 340.465 609.263 340.27C609.263 340.27 609.374 340.27 609.263 340.38C608.974 340.673 608.612 340.884 608.214 340.991C607.816 341.097 607.397 341.096 607 340.987C606.67 340.848 606.389 340.615 606.189 340.317C605.99 340.02 605.882 339.671 605.878 339.313C605.87 339.276 605.878 339.238 605.899 339.207C605.919 339.176 605.952 339.155 605.988 339.147C606.025 339.14 606.063 339.147 606.094 339.168C606.125 339.189 606.146 339.221 606.154 339.258V339.258Z" fill="#263238"/>
<path d="M613.772 333.72C613.772 333.72 613.901 336.277 613.772 337.4C613.772 337.51 613.46 337.547 613.055 337.529C612.013 337.627 610.964 337.437 610.023 336.98C609.082 336.522 608.285 335.814 607.719 334.934C607.719 334.824 607.811 334.713 607.903 334.787C609.359 335.92 611.137 336.564 612.981 336.627C613.092 336.296 612.595 332.229 612.779 332.248C613.7 332.41 614.596 332.688 615.447 333.076C615.318 327.74 614.343 322.441 614.288 317.123C614.299 317.09 614.32 317.062 614.348 317.042C614.376 317.022 614.41 317.012 614.444 317.012C614.478 317.012 614.512 317.022 614.54 317.042C614.568 317.062 614.589 317.09 614.6 317.123C615.836 322.758 616.502 328.503 616.588 334.272C616.606 335.063 614.232 333.959 613.772 333.72Z" fill="#263238"/>
<path d="M613.07 336.719C612.365 337.684 611.429 338.456 610.347 338.964C609.765 339.205 609.125 339.269 608.507 339.148C607.127 338.817 607.054 337.566 607.274 336.462C607.392 335.884 607.577 335.321 607.826 334.787C609.332 335.959 611.164 336.634 613.07 336.719V336.719Z" fill="#263238"/>
<path d="M610.347 338.926C609.765 339.167 609.125 339.231 608.507 339.11C607.127 338.779 607.054 337.528 607.274 336.424C607.99 336.448 608.677 336.706 609.232 337.158C609.787 337.609 610.179 338.231 610.347 338.926V338.926Z" fill="#FF99BA"/>
<path d="M577.76 325.899C580.501 326.046 588.45 319.367 590.143 306.266C590.143 306.266 587.806 317.932 586.72 319.551C585.635 321.17 591.155 315.871 592.682 305.236C595.745 308.008 599.19 310.325 602.912 312.117C607.77 314.086 610.824 314.381 611.229 314.068C611.634 313.755 604.532 310.59 602.802 308.069C602.802 308.069 615.406 315.761 621.478 316.92C622.196 317.067 623.005 305.401 614.228 298.133C605.452 290.865 591.339 293 586.868 296.441C586.868 296.441 582.047 296.588 576.085 303.009C570.124 309.431 574.889 325.678 577.76 325.899Z" fill="#263238"/>
<path d="M582.085 326.525C582.085 326.525 576.767 318.613 573.197 320.508C569.628 322.403 573.529 333.774 577.669 335.394C578.184 335.637 578.743 335.774 579.313 335.796C579.882 335.819 580.45 335.726 580.983 335.523C581.516 335.32 582.002 335.012 582.413 334.617C582.823 334.221 583.15 333.747 583.373 333.222L582.085 326.525Z" fill="#D3766A"/>
<path d="M574.391 323.84C574.391 323.84 574.391 323.84 574.391 323.95C575.714 324.641 576.878 325.599 577.81 326.765C578.741 327.931 579.419 329.279 579.8 330.721C579.633 330.43 579.406 330.177 579.134 329.981C578.861 329.784 578.55 329.648 578.22 329.582C577.891 329.516 577.551 329.521 577.224 329.597C576.896 329.673 576.589 329.818 576.323 330.022C576.323 330.022 576.323 330.206 576.323 330.188C576.838 330.031 577.39 330.039 577.901 330.211C578.413 330.382 578.858 330.709 579.175 331.145C579.694 331.877 580.138 332.66 580.499 333.481C580.628 333.739 581.107 333.61 581.015 333.316C581.18 329.36 578.383 324.189 574.391 323.84Z" fill="#263238"/>
<path d="M577.889 431.313L571.67 451.075L488.281 422.536C488.281 422.536 525.173 362.994 555.864 350.188C571.21 343.784 582.839 350.187 586.924 361.43C587.972 364.3 596.749 401.91 593.805 414.79C591.192 425.996 577.889 431.313 577.889 431.313Z" fill="#455A64"/>
<path d="M566.075 367.705C560.665 381.394 545.577 436.907 557.409 452.345C571.724 471.076 597.576 487.949 606.886 495.769C609.223 497.737 633.014 459.833 626.924 455.749C617.466 449.382 595.644 434.828 594.172 432.933C591.485 429.639 588.284 392.048 585.892 371.605C583.739 353.279 569.277 359.627 566.075 367.705Z" fill="#D3766A"/>
<path d="M642.807 476.707C641.39 474.37 642.604 473.597 647.149 475.309C651.694 477.02 668.272 487.673 671.492 481.583C674.712 475.493 651.123 460.809 643.322 458.546C636.359 456.882 629.268 455.805 622.125 455.326C626.136 459.098 635.005 469.2 642.807 476.707Z" fill="#D3766A"/>
<path d="M597.727 487.783C609.429 498.013 623.376 511.445 640.617 514.683C642.525 515.097 644.517 514.851 646.266 513.984C653.957 515.585 657.011 512.42 657.011 512.42C664.647 511.703 667.334 508.041 667.334 508.041C667.334 508.041 676.386 509.881 678.374 504.527C680.6 498.583 667.444 497.259 660.654 492.107C645.088 480.312 626.265 459.171 622.125 455.307L597.727 487.783Z" fill="#D3766A"/>
<path d="M635.651 491.28C640.165 494.785 644.911 497.982 649.856 500.848C655.467 503.641 661.279 506.009 667.244 507.932C667.283 507.944 667.316 507.971 667.335 508.007C667.354 508.044 667.357 508.086 667.345 508.125C667.333 508.164 667.306 508.197 667.27 508.216C667.233 508.234 667.191 508.238 667.152 508.226C655.268 505.649 644.32 499.857 635.504 491.482C635.302 491.28 635.412 491.041 635.651 491.28Z" fill="#263238"/>
<path d="M627.168 499.559C631.86 502.595 640.177 507.894 657.068 512.236C657.068 512.236 657.068 512.365 657.068 512.347C646.084 511.034 635.684 506.682 627.039 499.779C626.745 499.577 626.855 499.356 627.168 499.559Z" fill="#263238"/>
<path d="M622.674 504.159C630.042 508.485 637.965 511.784 646.226 513.966C646.226 513.966 646.226 514.076 646.226 514.058C635.002 511.905 631.175 509.844 622.49 504.416C622.177 504.159 622.361 503.956 622.674 504.159Z" fill="#263238"/>
<path d="M617.321 449.07L596.161 491.022C596.161 491.022 561.201 466.77 554.246 450.339C547.291 433.908 555.994 395.305 562.765 374.531C569.537 353.758 585.121 346.655 587.973 380.879C590.825 415.103 593.88 430.191 594.892 431.829C595.904 433.466 617.321 449.07 617.321 449.07Z" fill="#455A64"/>
<path d="M566.26 466.347C565.874 464.967 556.472 457.515 552.957 444.948C551.43 439.428 552.111 423.53 553.601 413.668C554.172 409.896 555.092 406.197 555.901 402.481C557.521 394.973 559.324 387.466 560.446 379.867C560.446 379.775 560.336 379.757 560.299 379.867C558.698 384.522 557.392 389.288 556.251 394.09C556.251 393.814 556.251 393.557 556.251 393.281C556.076 390.942 556.021 388.596 556.085 386.252C556.075 386.224 556.056 386.199 556.031 386.182C556.007 386.165 555.977 386.156 555.947 386.156C555.917 386.156 555.888 386.165 555.863 386.182C555.839 386.199 555.82 386.224 555.809 386.252C555.809 388.589 555.497 390.889 555.405 393.207C555.405 394.329 555.313 395.452 555.405 396.574C555.405 396.997 555.405 397.457 555.405 397.917C555.073 399.408 554.742 400.898 554.448 402.389C553.693 406.197 553.16 410.043 552.479 413.852C550.639 424.377 549.756 438.508 551.688 446.144C554.981 459.024 565.782 465.795 566.021 466.384C566.076 466.494 566.316 466.531 566.26 466.347Z" fill="#263238"/>
<path d="M589.68 484.159C591.566 481.101 593.298 477.95 594.869 474.719C596.525 471.567 598.151 468.414 599.745 465.262C602.965 458.877 606.369 452.529 609.184 445.942C609.184 445.795 609.037 445.666 608.945 445.813C605.081 451.903 601.824 458.417 598.531 464.82C596.875 468.046 595.268 471.291 593.71 474.554C592.098 477.658 590.667 480.853 589.423 484.122C589.368 484.214 589.588 484.287 589.68 484.159Z" fill="#263238"/>
<path d="M914.481 342.464C915.922 340.181 917.683 338.829 919.762 338.407C921.87 338.003 923.967 338.46 926.053 339.777C928.138 341.094 929.438 342.782 929.951 344.84C930.465 346.899 930.001 349.07 928.559 351.353C927.118 353.636 925.357 354.988 923.278 355.41C921.198 355.831 919.116 355.384 917.03 354.067C914.944 352.75 913.63 351.053 913.089 348.977C912.575 346.918 913.039 344.747 914.481 342.464ZM947.405 353.91L912.335 373.396L905.359 368.991L940.429 349.505L947.405 353.91ZM923.341 343.978C921.988 343.124 920.698 343.669 919.47 345.614C918.259 347.53 918.331 348.916 919.684 349.77C920.332 350.179 920.991 350.26 921.66 350.012C922.328 349.765 922.965 349.161 923.571 348.203C924.798 346.258 924.722 344.85 923.341 343.978ZM924.248 371.574C925.689 369.291 927.45 367.939 929.529 367.517C931.609 367.096 933.691 367.544 935.777 368.861C937.863 370.177 939.162 371.865 939.676 373.924C940.189 375.983 939.725 378.154 938.284 380.437C936.842 382.72 935.082 384.072 933.002 384.494C930.923 384.915 928.84 384.467 926.754 383.15C924.669 381.833 923.369 380.146 922.856 378.087C922.342 376.028 922.806 373.857 924.248 371.574ZM933.065 373.062C932.417 372.652 931.758 372.572 931.09 372.819C930.449 373.085 929.817 373.711 929.194 374.697C927.984 376.614 928.055 377.999 929.408 378.854C930.056 379.263 930.715 379.344 931.384 379.096C932.053 378.848 932.69 378.245 933.295 377.287C933.9 376.329 934.171 375.494 934.107 374.784C934.061 374.045 933.714 373.471 933.065 373.062Z" fill="#FF4A37"/>
</svg>
