<?xml version="1.0" encoding="UTF-8" standalone="no"?>
<!DOCTYPE svg PUBLIC "-//W3C//DTD SVG 1.1//EN" "http://www.w3.org/Graphics/SVG/1.1/DTD/svg11.dtd">
<svg width="100%" height="100%" viewBox="0 0 2333 794" version="1.1" xmlns="http://www.w3.org/2000/svg" xmlns:xlink="http://www.w3.org/1999/xlink" xml:space="preserve" xmlns:serif="http://www.serif.com/" style="fill-rule:evenodd;clip-rule:evenodd;stroke-linejoin:round;stroke-miterlimit:2;">
    <g transform="matrix(1,0,0,1,17.4396,-605.18)">
        <g transform="matrix(4.16667,0,0,4.16667,266.298,-449.903)">
            <path d="M192.884,268.415C194.347,267.056 194.347,264.74 192.884,263.381L183.828,254.968C182.465,253.702 180.33,253.791 179.078,255.167C178.029,256.32 178.488,258.27 178.759,259.261C178.821,259.485 178.901,259.767 178.993,260.086L109.395,260.086C107.769,260.086 106.395,260.648 105.269,261.773C104.144,262.898 103.582,264.275 103.582,265.898C103.582,267.524 104.144,268.898 105.269,270.024C106.395,271.149 107.769,271.712 109.395,271.712L142.209,271.712L142.209,375.405C142.209,377.031 142.772,378.406 143.897,379.53C145.022,380.655 146.396,381.219 148.022,381.219C149.645,381.219 151.022,380.655 152.148,379.53C153.272,378.406 153.835,377.031 153.835,375.405L153.835,271.712L179.019,271.712C178.915,272.03 178.824,272.315 178.759,272.535C178.467,273.519 178.029,275.476 179.078,276.629C180.33,278.004 182.465,278.094 183.828,276.827L192.884,268.415Z" style="fill:rgb(255,74,55);fill-rule:nonzero;"/>
        </g>
        <g transform="matrix(4.16667,0,0,4.16667,266.298,-297.515)">
            <path d="M297.758,312.487C296.006,316.551 293.601,320.114 290.539,323.175C287.474,326.241 283.883,328.645 279.757,330.394C275.632,332.147 271.255,333.02 266.631,333.02C262.005,333.02 257.66,332.147 253.599,330.394C249.535,328.645 245.973,326.241 242.911,323.175C239.846,320.114 237.441,316.551 235.692,312.487C233.94,308.426 233.067,304.082 233.067,299.456C233.067,294.832 233.94,290.455 235.692,286.33C237.441,282.205 239.846,278.612 242.911,275.548C245.973,272.486 249.535,270.081 253.599,268.329C257.66,266.579 262.005,265.704 266.631,265.704C271.255,265.704 275.632,266.579 279.757,268.329C283.883,270.081 287.474,272.486 290.539,275.548C293.601,278.612 296.006,282.205 297.758,286.33C299.507,290.455 300.383,294.832 300.383,299.456C300.383,304.082 299.507,308.426 297.758,312.487M298.508,267.391C294.383,263.266 289.601,259.984 284.164,257.547C278.726,255.109 273.007,253.89 267.006,253.89C260.505,254.142 254.472,255.484 248.911,257.922C243.347,260.359 238.534,263.612 234.473,267.673C230.409,271.736 227.221,276.485 224.91,281.923C222.595,287.361 221.441,293.206 221.441,299.456C221.441,305.957 222.628,311.957 225.004,317.457C227.377,322.959 230.629,327.709 234.754,331.708C238.879,335.71 243.661,338.833 249.099,341.083C254.537,343.334 260.379,344.458 266.631,344.458C273.007,344.458 278.943,343.272 284.445,340.895C289.944,338.522 294.726,335.27 298.789,331.145C302.85,327.019 306.071,322.238 308.446,316.8C310.82,311.363 312.009,305.582 312.009,299.456C312.009,293.206 310.79,287.332 308.353,281.83C305.915,276.33 302.634,271.516 298.508,267.391" style="fill:rgb(255,74,55);fill-rule:nonzero;"/>
        </g>
        <g transform="matrix(4.16667,0,0,4.16667,266.298,-424.082)">
            <path d="M358.136,363.396C354.01,363.273 350.697,362.396 348.198,360.77C345.696,359.147 343.758,357.272 342.385,355.145C341.007,353.021 340.102,350.958 339.665,348.957C339.226,346.959 339.009,345.459 339.009,344.457L339.009,259.514C339.009,257.891 338.447,256.514 337.322,255.389C336.198,254.264 334.82,253.702 333.197,253.702C331.571,253.702 330.197,254.264 329.072,255.389C327.946,256.514 327.384,257.891 327.384,259.514L327.384,344.457C327.384,347.208 327.914,350.334 328.978,353.833C330.037,357.334 331.79,360.647 334.228,363.771C336.665,366.897 339.822,369.522 343.698,371.646C347.571,373.773 352.384,374.899 358.136,375.022C359.759,375.022 361.136,374.459 362.261,373.334C363.386,372.209 363.948,370.834 363.948,369.208C363.948,367.585 363.386,366.209 362.261,365.083C361.136,363.958 359.759,363.396 358.136,363.396" style="fill:rgb(255,74,55);fill-rule:nonzero;"/>
        </g>
        <g transform="matrix(4.16667,0,0,4.16667,266.298,-424.082)">
            <path d="M398.143,363.396C394.017,363.273 390.704,362.396 388.204,360.77C385.702,359.147 383.765,357.272 382.391,355.145C381.014,353.021 380.109,350.958 379.672,348.957C379.233,346.959 379.016,345.459 379.016,344.457L379.016,259.514C379.016,257.891 378.454,256.514 377.329,255.389C376.204,254.264 374.827,253.702 373.203,253.702C371.577,253.702 370.203,254.264 369.078,255.389C367.953,256.514 367.39,257.891 367.39,259.514L367.39,344.457C367.39,347.208 367.921,350.334 368.984,353.833C370.044,357.334 371.796,360.647 374.235,363.771C376.672,366.897 379.828,369.522 383.704,371.646C387.577,373.773 392.391,374.899 398.143,375.022C399.765,375.022 401.143,374.459 402.267,373.334C403.392,372.209 403.955,370.834 403.955,369.208C403.955,367.585 403.392,366.209 402.267,365.083C401.143,363.958 399.765,363.396 398.143,363.396" style="fill:rgb(255,74,55);fill-rule:nonzero;"/>
        </g>
        <g transform="matrix(4.16667,0,0,4.16667,266.298,-295.948)">
            <path d="M477.041,312.487C475.228,316.549 472.79,320.081 469.729,323.082C466.663,326.082 463.133,328.425 459.134,330.112C455.132,331.799 450.883,332.644 446.383,332.644C441.757,332.644 437.411,331.771 433.351,330.018C429.287,328.269 425.725,325.865 422.663,322.8C419.599,319.738 417.192,316.175 415.443,312.111C413.691,308.05 412.818,303.706 412.818,299.08C412.818,294.456 413.691,290.079 415.443,285.954C417.192,281.829 419.599,278.236 422.663,275.172C425.725,272.11 429.287,269.705 433.351,267.953C437.411,266.203 441.757,265.328 446.383,265.328C451.006,265.328 455.383,266.203 459.509,267.953C463.634,269.705 467.227,272.11 470.291,275.172C473.353,278.236 475.758,281.829 477.51,285.954C479.259,290.079 480.136,294.456 480.136,299.08C479.883,303.955 478.852,308.425 477.041,312.487M488.104,281.454C485.666,275.954 482.385,271.14 478.26,267.015C474.135,262.89 469.354,259.608 463.915,257.171C458.478,254.733 452.759,253.514 446.759,253.514C440.256,253.766 434.224,255.108 428.663,257.546C423.1,259.983 418.286,263.236 414.225,267.297C410.161,271.36 406.973,276.109 404.661,281.547C402.347,286.985 401.193,292.83 401.193,299.08C401.193,305.581 402.379,311.581 404.755,317.081C407.128,322.583 410.381,327.333 414.506,331.332C418.631,335.334 423.412,338.457 428.851,340.707C434.288,342.958 440.131,344.082 446.383,344.082C453.134,344.082 459.415,342.426 465.228,339.113C471.041,335.802 476.01,331.833 480.136,327.206L480.136,338.644C480.136,340.27 480.697,341.645 481.823,342.77C482.947,343.894 484.321,344.458 485.947,344.458C487.571,344.458 488.947,343.894 490.073,342.77C491.198,341.645 491.761,340.27 491.761,338.644L491.761,299.08C491.761,292.83 490.542,286.956 488.104,281.454" style="fill:rgb(255,74,55);fill-rule:nonzero;"/>
        </g>
        <g transform="matrix(4.16667,0,0,4.16667,266.298,-325.048)">
            <path d="M225.951,263.381L216.895,254.968C215.532,253.702 213.398,253.792 212.145,255.167C211.096,256.32 211.555,258.271 211.826,259.261C211.926,259.625 212.075,260.141 212.246,260.724C208.553,261.326 205.009,262.375 201.616,263.873C196.24,266.249 191.52,269.498 187.459,273.624C187.005,274.085 186.565,274.557 186.133,275.034L186.133,266.123C186.133,264.5 185.571,263.123 184.445,261.998C183.32,260.873 181.943,260.311 180.32,260.311C178.694,260.311 177.32,260.873 176.195,261.998C175.07,263.123 174.507,264.5 174.507,266.123L174.507,302.668C174.459,303.543 174.427,304.424 174.427,305.313L174.427,345.441C174.427,347.067 174.989,348.442 176.115,349.566C177.24,350.691 178.614,351.254 180.24,351.254C180.253,351.254 180.266,351.252 180.28,351.252C180.294,351.252 180.306,351.254 180.32,351.254C181.943,351.254 183.32,350.691 184.445,349.566C185.571,348.442 186.133,347.067 186.133,345.441L186.133,303.065C186.369,299.383 187.18,295.85 188.584,292.469C190.271,288.408 192.615,284.874 195.616,281.874C198.616,278.874 202.114,276.469 206.116,274.655C207.951,273.825 209.84,273.18 211.78,272.703C211.493,273.728 211.149,275.534 212.145,276.629C213.398,278.004 215.532,278.094 216.895,276.827L225.951,268.415C227.414,267.056 227.414,264.74 225.951,263.381" style="fill:rgb(255,74,55);fill-rule:nonzero;"/>
        </g>
        <g transform="matrix(0.878632,0,0,0.878632,79.2304,104.299)">
            <g transform="matrix(4.16667,0,0,4.16667,-891.748,-403.53)">
                <path d="M341.294,379.558L254.2,379.558C237.963,379.558 224.8,366.395 224.8,350.158L224.8,263.065C224.8,246.828 237.963,233.664 254.2,233.664L341.294,233.664C357.531,233.664 370.694,246.828 370.694,263.065L370.694,350.158C370.694,366.395 357.531,379.558 341.294,379.558" style="fill:rgb(255,74,55);fill-rule:nonzero;"/>
            </g>
            <g transform="matrix(4.16667,0,0,4.16667,-891.748,-329.438)">
                <clipPath id="_clip1">
                    <path d="M254.201,215.882C237.963,215.882 224.8,229.045 224.8,245.282L224.8,332.375C224.8,348.613 237.963,361.775 254.201,361.775L341.294,361.775C357.531,361.775 370.695,348.613 370.695,332.375L370.695,245.282C370.695,229.045 357.531,215.882 341.294,215.882L254.201,215.882Z" clip-rule="nonzero"/>
                </clipPath>
                <g clip-path="url(#_clip1)">
                    <g transform="matrix(1,0,0,1,0,89.785)">
                        <path d="M358.947,192.015L344.861,178.929C342.741,176.959 339.421,177.099 337.473,179.239C335.841,181.033 336.555,184.066 336.976,185.606C337.132,186.172 337.363,186.974 337.63,187.881C331.885,188.819 326.373,190.45 321.095,192.781C312.732,196.476 305.39,201.53 299.074,207.947C298.368,208.663 297.684,209.398 297.012,210.141L297.012,196.28C297.012,193.755 296.137,191.614 294.387,189.864C292.637,188.114 290.495,187.239 287.97,187.239C285.441,187.239 283.303,188.114 281.554,189.864C279.803,191.614 278.929,193.755 278.929,196.28L278.929,253.123C278.853,254.486 278.803,255.854 278.803,257.238L278.803,319.654C278.803,322.183 279.678,324.322 281.428,326.071C283.179,327.821 285.316,328.696 287.845,328.696C287.867,328.696 287.886,328.693 287.908,328.693C287.929,328.693 287.949,328.696 287.97,328.696C290.495,328.696 292.637,327.821 294.387,326.071C296.137,324.322 297.012,322.183 297.012,319.654L297.012,253.741C297.38,248.013 298.64,242.517 300.825,237.259C303.45,230.943 307.095,225.447 311.762,220.78C316.428,216.114 321.87,212.372 328.095,209.551C330.948,208.259 333.887,207.256 336.905,206.515C336.459,208.108 335.924,210.918 337.473,212.62C339.421,214.76 342.741,214.9 344.861,212.93L358.947,199.844C361.223,197.731 361.223,194.128 358.947,192.015" style="fill:white;fill-rule:nonzero;"/>
                    </g>
                    <g transform="matrix(1,0,0,1,0,71.801)">
                        <path d="M326.337,185.632C328.609,183.521 328.609,179.923 326.337,177.813L312.27,164.743C310.151,162.777 306.836,162.916 304.891,165.053C303.261,166.844 303.975,169.873 304.396,171.411C304.491,171.761 304.615,172.198 304.759,172.694L196.645,172.694C194.118,172.694 191.983,173.568 190.235,175.316C188.488,177.063 187.614,179.201 187.614,181.724C187.614,184.249 188.488,186.384 190.235,188.132C191.983,189.879 194.118,190.753 196.645,190.753L247.619,190.753L247.619,351.832C247.619,354.358 248.492,356.493 250.24,358.24C251.987,359.987 254.122,360.862 256.649,360.862C259.17,360.862 261.309,359.987 263.057,358.24C264.804,356.493 265.678,354.358 265.678,351.832L265.678,190.753L304.8,190.753C304.637,191.249 304.496,191.691 304.396,192.032C303.942,193.562 303.261,196.6 304.891,198.391C306.836,200.528 310.151,200.667 312.27,198.7L326.337,185.632Z" style="fill:white;fill-rule:nonzero;"/>
                    </g>
                </g>
            </g>
        </g>
    </g>
</svg>
